<?xml version="1.0" encoding="UTF-8"?>
<svg version="1.1" xmlns="http://www.w3.org/2000/svg" width="1408" height="768">
<path d="M0 0 C464.64 0 929.28 0 1408 0 C1408 253.44 1408 506.88 1408 768 C943.36 768 478.72 768 0 768 C0 514.56 0 261.12 0 0 Z " fill="#292929" transform="translate(0,0)"/>
<path d="M0 0 C7.035647 6.73157284 7.035647 6.73157284 9.27880859 9.70576477 C12.54803479 13.662817 15.08372967 16.14724902 20.17103577 17.34039307 C24.48233069 17.64400933 28.71372673 17.67857822 33.03125 17.60546875 C34.61024318 17.61113011 36.18922665 17.62075196 37.76817322 17.63414001 C41.89686564 17.65862985 46.02347872 17.62979366 50.15197754 17.58935547 C54.37547638 17.55758606 58.59871906 17.57692498 62.82226562 17.59179688 C71.08913216 17.61345713 79.35450496 17.57871179 87.62109375 17.5078125 C86.37136508 21.32338843 85.04186568 24.94337612 83.30078125 28.5625 C82.8519458 29.49892334 82.40311035 30.43534668 81.94067383 31.40014648 C81.4639624 32.38442627 80.98725098 33.36870605 80.49609375 34.3828125 C80.00326904 35.40640869 79.51044434 36.43000488 79.00268555 37.48461914 C76.18407967 43.32378138 73.33413699 49.14643623 70.43359375 54.9453125 C70.12220459 55.57236084 69.81081543 56.19940918 69.48999023 56.84545898 C67.82714872 60.17589669 66.10766103 63.4632274 64.31640625 66.7265625 C63.75022583 67.78532593 63.75022583 67.78532593 63.17260742 68.86547852 C62.45694951 70.20159286 61.72402899 71.5286812 60.9699707 72.84350586 C57.9123747 78.62201876 58.45471932 83.37795019 60.19897461 89.55395508 C60.87815047 91.61977112 61.61703503 93.65570718 62.37109375 95.6953125 C74.78091519 131.29713629 77.20510305 170.45131928 70.62109375 207.5078125 C70.46543945 208.39871582 70.30978516 209.28961914 70.14941406 210.20751953 C62.81979322 250.34487438 43.77352331 289.8378728 15.62109375 319.5078125 C14.159845 321.15105794 12.70158032 322.7969611 11.24609375 324.4453125 C9.7092242 326.13718257 8.16746226 327.82462006 6.62109375 329.5078125 C5.85925781 330.34828125 5.09742188 331.18875 4.3125 332.0546875 C-7.92075398 344.95590387 -23.12333977 355.45838556 -38.37890625 364.5078125 C-39.38655029 365.10819336 -39.38655029 365.10819336 -40.41455078 365.72070312 C-51.67107926 372.35988776 -63.21135865 377.76017526 -75.37890625 382.5078125 C-76.56871094 382.97960937 -77.75851562 383.45140625 -78.984375 383.9375 C-88.8690469 387.66887673 -99.08663777 390.18059309 -109.37890625 392.5078125 C-110.12849609 392.67877441 -110.87808594 392.84973633 -111.65039062 393.02587891 C-125.51968893 396.00076808 -139.24422203 396.88726588 -153.37890625 396.8203125 C-154.18328125 396.81848969 -154.98765625 396.81666687 -155.81640625 396.81478882 C-218.31198124 396.57761836 -275.77483163 370.97642107 -319.91455078 326.97705078 C-332.96049708 313.6847141 -344.13978714 298.66496129 -353.37890625 282.5078125 C-353.85183105 281.68104004 -354.32475586 280.85426758 -354.81201172 280.00244141 C-368.05274422 256.50692747 -376.60847475 232.02928598 -381.37890625 205.5078125 C-381.55534668 204.54488281 -381.73178711 203.58195312 -381.91357422 202.58984375 C-391.88144189 145.92414607 -377.17099764 86.11993905 -344.67895508 39.01000977 C-339.352219 31.46809128 -333.43981583 24.46419083 -327.37890625 17.5078125 C-326.78722656 16.80398437 -326.19554687 16.10015625 -325.5859375 15.375 C-316.86648655 5.08389493 -307.07824702 -4.29175317 -296.37890625 -12.4921875 C-295.8463623 -12.90645996 -295.31381836 -13.32073242 -294.76513672 -13.74755859 C-265.41955684 -36.47839062 -231.09288768 -52.39814213 -194.37890625 -58.4921875 C-193.11949219 -58.70359375 -191.86007812 -58.915 -190.5625 -59.1328125 C-187.17234998 -59.65380153 -183.78599381 -60.09842434 -180.37890625 -60.4921875 C-178.97511719 -60.66041016 -178.97511719 -60.66041016 -177.54296875 -60.83203125 C-112.15286219 -67.23079503 -47.85949661 -44.4741508 0 0 Z " fill="#FEFDFD" transform="translate(859.37890625,216.4921875)"/>
<path d="M0 0 C141.90779062 0 141.90779062 0 166.35546875 24.2890625 C167.22816406 25.18367188 168.10085938 26.07828125 169 27 C169.73863281 27.72960937 170.47726562 28.45921875 171.23828125 29.2109375 C186.86515118 45.53570647 192.41449775 68.05615955 192.30053711 90.12963867 C191.76330926 112.97989041 183.04398243 132.67552837 167 149 C166.38640625 149.62648438 165.7728125 150.25296875 165.140625 150.8984375 C161.04910699 154.76264895 156.5347757 157.62919217 151.6875 160.4375 C151.07624268 160.79215332 150.46498535 161.14680664 149.83520508 161.51220703 C147.00922465 163.09112026 145.28948354 164 142 164 C147.43037631 171.62459156 152.88525549 179.23052457 158.375 186.8125 C163.12385562 193.37412453 167.81612597 199.97283034 172.47558594 206.59814453 C176.69667255 212.59119946 180.98128345 218.53689466 185.28076172 224.47387695 C188.98146553 229.58471677 192.65741008 234.71224311 196.31054688 239.85717773 C198.52912254 242.9723822 200.77930061 246.06067914 203.0625 249.12890625 C203.82796143 250.16011597 203.82796143 250.16011597 204.60888672 251.2121582 C205.60112381 252.54584628 206.59739455 253.87654518 207.59814453 255.20385742 C211 259.77891531 211 259.77891531 211 262 C203.2907968 262.46701905 195.58499125 262.82043213 187.86513329 263.03624344 C184.2776758 263.13995458 180.6999881 263.27990534 177.11816406 263.50878906 C154.08282044 264.94258265 154.08282044 264.94258265 147.36279297 260.0993042 C142.95835192 255.46369943 140.01816596 250.22560103 137.27096558 244.49052429 C135.3444807 240.71547524 132.8426749 237.46095954 130.25 234.125 C129.35392701 232.91746972 128.46031485 231.70810531 127.5703125 230.49609375 C127.14137695 229.91456543 126.71244141 229.33303711 126.27050781 228.73388672 C123.78078143 225.33610871 121.34324259 221.90111745 118.90258789 218.46801758 C116.59837471 215.2297004 114.27988883 212.00274532 111.94140625 208.7890625 C106.11493585 200.7787682 100.36517634 192.72272361 94.75 184.5625 C94.18885498 183.75143799 93.62770996 182.94037598 93.04956055 182.10473633 C92.53304932 181.3495874 92.01653809 180.59443848 91.484375 179.81640625 C91.02772461 179.15068604 90.57107422 178.48496582 90.10058594 177.79907227 C89 176 89 176 88 173 C75.79 173 63.58 173 51 173 C51 202.37 51 231.74 51 262 C34.17 262 17.34 262 0 262 C0 175.54 0 89.08 0 0 Z " fill="#F57113" transform="translate(536,253)"/>
<path d="M0 0 C1.62215675 0.00333092 1.62215675 0.00333092 3.27708435 0.00672913 C4.49827469 0.00680466 5.71946503 0.00688019 6.97766113 0.00695801 C8.32022644 0.0120654 9.66279134 0.01728141 11.00535583 0.02259827 C12.37156116 0.02446252 13.73776716 0.02588639 15.10397339 0.02688599 C18.70596654 0.03071058 22.30791959 0.04054035 25.90989685 0.05158997 C29.58298703 0.06180536 33.25608368 0.06638388 36.92918396 0.07142639 C44.14079081 0.08216268 51.35236459 0.09923838 58.56394958 0.12025452 C57.22520353 3.49855242 55.81116063 6.79838567 54.24363708 10.07728577 C53.7951239 11.01620667 53.34661072 11.95512756 52.88450623 12.92250061 C52.40747253 13.9158844 51.93043884 14.90926819 51.43894958 15.93275452 C50.94322449 16.96738831 50.44749939 18.00202209 49.93675232 19.06800842 C46.91560637 25.35656549 43.84028363 31.6133939 40.69432068 37.84022522 C37.06471364 45.05468572 33.59798141 52.34764749 30.12669373 59.63929749 C27.44851125 65.25033762 24.72062742 70.83329034 21.93113708 76.38978577 C16.44175839 87.32533609 11.07259466 98.31988376 5.68894958 109.30775452 C3.67273684 113.42115182 1.65630319 117.53444082 -0.3601265 121.64773178 C-1.25235289 123.46785523 -2.14448523 125.28802477 -3.03660583 127.10820007 C-7.18620189 135.57401131 -11.34125438 144.03712807 -15.49855042 152.49916077 C-17.21756037 155.99925528 -18.93647332 159.4993974 -20.65534973 162.9995575 C-21.73745447 165.20252043 -22.81991804 167.40530715 -23.90278625 169.6078949 C-31.50377386 185.0694328 -39.00461425 200.57653218 -46.43605042 216.12025452 C-47.08232345 217.47102646 -47.72863791 218.82177858 -48.37501526 220.17250061 C-49.36733733 222.2465736 -50.35954179 224.32070287 -51.35157776 226.39491272 C-56.27919576 236.68918092 -61.29103999 246.93313387 -66.43605042 257.12025452 C-67.60496529 259.45247048 -68.77046407 261.78637117 -69.93605042 264.12025452 C-70.76938375 265.78692118 -71.60271708 267.45358785 -72.43605042 269.12025452 C-75.61729419 266.13486842 -78.02592278 262.99648728 -80.45558167 259.37806702 C-81.01843117 258.54414429 -81.01843117 258.54414429 -81.59265137 257.69337463 C-82.81534083 255.88002873 -84.03188287 254.06264498 -85.24855042 252.24525452 C-86.10320203 250.97588041 -86.95835087 249.70684095 -87.8139801 248.43812561 C-89.54138035 245.87624427 -91.26694813 243.31314439 -92.9912262 240.74916077 C-96.36744678 235.73281704 -99.77521615 230.73810414 -103.18605042 225.74525452 C-104.39445284 223.97446833 -105.60278648 222.2036352 -106.81105042 220.43275452 C-107.70050354 219.12951233 -107.70050354 219.12951233 -108.60792542 217.79994202 C-110.51012875 215.0116696 -112.41078322 212.22234677 -114.31105042 209.43275452 C-122.18058364 197.87919278 -122.18058364 197.87919278 -130.09034729 186.35316467 C-131.43406687 184.40141664 -132.77308775 182.44651075 -134.11183167 180.49134827 C-135.54475836 178.40183388 -136.99901277 176.33770455 -138.47901917 174.28041077 C-139.32399963 173.08738342 -139.32399963 173.08738342 -140.18605042 171.87025452 C-140.88987854 170.90345764 -140.88987854 170.90345764 -141.60792542 169.91712952 C-142.43605042 168.12025452 -142.43605042 168.12025452 -142.32667542 166.15931702 C-141.14885447 163.46272696 -139.49859726 161.84360946 -137.43605042 159.74525452 C-129.43283412 151.11658751 -122.17457121 140.33581689 -118.43605042 129.12025452 C-117.77605042 129.12025452 -117.11605042 129.12025452 -116.43605042 129.12025452 C-116.3264801 128.44220764 -116.21690979 127.76416077 -116.10401917 127.06556702 C-114.99817523 120.57435302 -113.47306949 114.38069315 -111.43605042 108.12025452 C-108.13894902 111.1040466 -106.27543304 113.98040568 -104.33448792 117.96791077 C-103.76641418 119.1221051 -103.19834045 120.27629944 -102.61305237 121.46546936 C-102.31871307 122.07267822 -102.02437378 122.67988708 -101.72111511 123.30549622 C-100.18496624 126.47422503 -98.62314289 129.63028974 -97.06495667 132.78822327 C-96.75597946 133.41629883 -96.44700226 134.04437439 -96.12866211 134.69148254 C-92.69633739 141.65456658 -89.07160548 148.51049385 -85.42433167 155.36244202 C-80.43605042 164.77080922 -80.43605042 164.77080922 -80.43605042 167.12025452 C-79.77605042 167.12025452 -79.11605042 167.12025452 -78.43605042 167.12025452 C-78.34122375 166.45300354 -78.24639709 165.78575256 -78.1486969 165.09828186 C-77.24512821 161.3224234 -75.68034844 157.96687773 -74.03370667 154.47181702 C-73.68449158 153.7192009 -73.33527649 152.96658478 -72.97547913 152.19116211 C-71.82144489 149.70686018 -70.65994877 147.22612115 -69.49855042 144.74525452 C-68.68734913 143.00195008 -67.87672989 141.2583747 -67.06666565 139.51454163 C-65.37695968 135.87830731 -63.6847288 132.24326404 -61.99073792 128.60902405 C-58.35480399 120.8036074 -54.74884826 112.98437463 -51.14320374 105.16493225 C-49.99747448 102.68042136 -48.85112472 100.19619764 -47.7046051 97.71205139 C-40.07126058 81.17161571 -32.47414019 64.61526258 -24.94313049 48.02796936 C-19.50423895 36.04871641 -14.05803283 24.0729856 -8.56105042 12.12025452 C-8.05517395 11.01633362 -7.54929749 9.91241272 -7.02809143 8.77503967 C-6.56717102 7.77521057 -6.10625061 6.77538147 -5.63136292 5.74525452 C-5.22933655 4.87127014 -4.82731018 3.99728577 -4.4131012 3.09681702 C-2.95438041 0.14584164 -2.95438041 0.14584164 0 0 Z " fill="#F57113" transform="translate(857.4360504150391,252.87974548339844)"/>
<path d="M0 0 C9.03375 -0.061875 18.0675 -0.12375 27.375 -0.1875 C31.62383057 -0.22846802 31.62383057 -0.22846802 35.95849609 -0.27026367 C38.23013891 -0.27903419 40.50178647 -0.28667679 42.7734375 -0.29296875 C43.93141846 -0.30831665 45.08939941 -0.32366455 46.2824707 -0.33947754 C57.89341944 -0.34318395 69.64739704 2.46239464 78.55859375 10.40234375 C86.8795439 19.62529391 89.58795028 30.46347157 89.28515625 42.6015625 C88.37681954 53.42694526 83.68672944 62.0121749 75.89453125 69.46484375 C72.85800468 71.9253694 69.58355826 73.49033078 66 75 C64.7625 75.5878125 64.7625 75.5878125 63.5 76.1875 C56.15446458 78.57479901 48.25431065 78.13302871 40.625 78.09765625 C39.59117187 78.09664917 38.55734375 78.09564209 37.4921875 78.09460449 C33.66144691 78.08940579 29.83072224 78.07544473 26 78.0625 C17.42 78.041875 8.84 78.02125 0 78 C0 52.26 0 26.52 0 0 Z " fill="#FEFEFD" transform="translate(587,301)"/>
<path d="M0 0 C128.16494845 0 128.16494845 0 154 14 C154 14.33 154 14.66 154 15 C152.35 15 150.7 15 149 15 C149 14.34 149 13.68 149 13 C147.47632813 12.61908203 147.47632813 12.61908203 145.921875 12.23046875 C137.61458333 10.15364583 129.30729167 8.07682292 121 6 C121 5.34 121 4.68 121 4 C81.46476909 0.70539742 41.67053606 2.37075267 2 2 C2 87.14 2 172.28 2 260 C17.51 260 33.02 260 49 260 C48.98839844 253.65910156 48.97679687 247.31820312 48.96484375 240.78515625 C48.95973705 236.77929586 48.95492329 232.77343945 48.95117188 228.76757812 C48.9451832 222.40274222 48.93808225 216.03792064 48.92456055 209.6730957 C48.91373245 204.54436015 48.90772333 199.41563994 48.90512276 194.28689384 C48.90326837 192.32558386 48.89964749 190.36427476 48.89426994 188.40297127 C48.88706054 185.66584553 48.88600901 182.92878403 48.88647461 180.19165039 C48.88287933 179.37238068 48.87928406 178.55311096 48.87557983 177.70901489 C48.88594784 172.11405216 48.88594784 172.11405216 50 171 C52.95705321 170.91131701 55.89065056 170.88479704 58.84765625 170.90234375 C60.17729652 170.90446617 60.17729652 170.90446617 61.53379822 170.90663147 C64.37673254 170.91224785 67.21958931 170.92480309 70.0625 170.9375 C71.98502491 170.94251289 73.90755104 170.94707616 75.83007812 170.95117188 C80.55341549 170.96222259 85.27669458 170.97949817 90 171 C90.99 173.475 90.99 173.475 92 176 C92.66 175.67 93.32 175.34 94 175 C94.4125 176.0725 94.825 177.145 95.25 178.25 C96.6431264 181.55617557 98.41443394 183.50359139 101 186 C101 186.99 101 187.98 101 189 C101.66 189 102.32 189 103 189 C103 190.98 103 192.96 103 195 C99.63242997 190.85468166 96.42365564 186.60651439 93.25 182.3125 C92.74339844 181.63638672 92.23679687 180.96027344 91.71484375 180.26367188 C91.23660156 179.61591797 90.75835938 178.96816406 90.265625 178.30078125 C89.83024414 177.71466064 89.39486328 177.12854004 88.94628906 176.5246582 C88 175 88 175 88 173 C75.79 173 63.58 173 51 173 C51 202.37 51 231.74 51 262 C34.17 262 17.34 262 0 262 C0 175.54 0 89.08 0 0 Z " fill="#D78340" transform="translate(536,253)"/>
<path d="M0 0 C0.66 0 1.32 0 2 0 C2.51046875 1.17755859 2.51046875 1.17755859 3.03125 2.37890625 C8.05320028 13.26425062 13.78827324 18.82155554 25 23 C25 23.66 25 24.32 25 25 C24.21496094 25.3403125 23.42992187 25.680625 22.62109375 26.03125 C11.73574938 31.05320028 6.17844446 36.78827324 2 48 C1.34 48 0.68 48 0 48 C-0.3403125 47.21496094 -0.680625 46.42992187 -1.03125 45.62109375 C-6.05320028 34.73574938 -11.78827324 29.17844446 -23 25 C-23 24.34 -23 23.68 -23 23 C-22.21496094 22.6596875 -21.42992187 22.319375 -20.62109375 21.96875 C-9.73574938 16.94679972 -4.17844446 11.21172676 0 0 Z " fill="#929292" transform="translate(1351,688)"/>
<path d="M0 0 C0 86.13 0 172.26 0 261 C-0.33 261 -0.66 261 -1 261 C-1.02505615 260.26885986 -1.0501123 259.53771973 -1.07592773 258.78442383 C-1.19222641 255.46028583 -1.31479928 252.13640759 -1.4375 248.8125 C-1.49647461 247.08676758 -1.49647461 247.08676758 -1.55664062 245.32617188 C-1.59853516 244.21435547 -1.64042969 243.10253906 -1.68359375 241.95703125 C-1.72025146 240.93585205 -1.75690918 239.91467285 -1.79467773 238.86254883 C-1.91357979 236.10663334 -1.91357979 236.10663334 -2.50531673 233.90440083 C-3.20159791 229.81637165 -3.13395124 225.80662474 -3.12025452 221.66703796 C-3.12110894 220.7235488 -3.12196337 219.78005963 -3.12284368 218.80797988 C-3.12449143 215.6449979 -3.1189886 212.4820689 -3.11352539 209.3190918 C-3.11324334 207.05237326 -3.1134016 204.78565464 -3.1139679 202.51893616 C-3.11425518 196.36239581 -3.10836959 190.20587488 -3.10139394 184.04933906 C-3.09514891 177.61645592 -3.09455569 171.18357235 -3.09336853 164.75068665 C-3.0906121 153.95252099 -3.08436298 143.15436331 -3.07543945 132.35620117 C-3.06625836 121.23478226 -3.05918093 110.11336529 -3.05493164 98.99194336 C-3.05466892 98.30624799 -3.05440619 97.62055263 -3.05413551 96.91407862 C-3.05283046 93.47409541 -3.05156675 90.03411219 -3.05032361 86.59412897 C-3.0399594 58.06274782 -3.02227401 29.53137419 -3 1 C-1 0 -1 0 0 0 Z " fill="#FEF2D8" transform="translate(536,253)"/>
<path d="M0 0 C9.03375 -0.061875 18.0675 -0.12375 27.375 -0.1875 C31.62383057 -0.22846802 31.62383057 -0.22846802 35.95849609 -0.27026367 C38.23013891 -0.27903419 40.50178647 -0.28667679 42.7734375 -0.29296875 C43.93141846 -0.30831665 45.08939941 -0.32366455 46.2824707 -0.33947754 C56.14629455 -0.34262624 64.09821184 1.93614019 73 6 C69.31685638 7.22771454 68.6229013 6.6136015 65.15893555 5.10058594 C58.5434207 2.57859426 52.47840155 2.39736821 45.45703125 2.390625 C43.7928717 2.36718018 43.7928717 2.36718018 42.09509277 2.34326172 C38.00110863 2.29116436 33.90675388 2.27248266 29.8125 2.25 C20.634375 2.1675 11.45625 2.085 2 2 C2 26.42 2 50.84 2 76 C20.15 76 38.3 76 57 76 C57 75.34 57 74.68 57 74 C58.04800781 73.81824219 58.04800781 73.81824219 59.1171875 73.6328125 C60.02726563 73.46523438 60.93734375 73.29765625 61.875 73.125 C62.77992188 72.96257812 63.68484375 72.80015625 64.6171875 72.6328125 C67.16505988 72.16955297 67.16505988 72.16955297 69 70 C71.625 69.875 71.625 69.875 74 70 C71.69270897 72.61343645 69.53902316 73.83844288 66.3125 75.125 C65.10013672 75.62386719 65.10013672 75.62386719 63.86328125 76.1328125 C56.29275951 78.4256581 48.45738233 78.13397023 40.625 78.09765625 C39.59117187 78.09664917 38.55734375 78.09564209 37.4921875 78.09460449 C33.66144691 78.08940579 29.83072224 78.07544473 26 78.0625 C17.42 78.041875 8.84 78.02125 0 78 C0 52.26 0 26.52 0 0 Z " fill="#FEE9CA" transform="translate(587,301)"/>
<path d="M0 0 C10.415625 -0.061875 20.83125 -0.12375 31.5625 -0.1875 C34.84002197 -0.21481201 38.11754395 -0.24212402 41.49438477 -0.27026367 C44.10172151 -0.27902823 46.70906237 -0.28667224 49.31640625 -0.29296875 C50.3215049 -0.30472893 50.3215049 -0.30472893 51.34690857 -0.31672668 C65.49577252 -0.47386719 65.49577252 -0.47386719 71 3 C71.495 4.485 71.495 4.485 72 6 C72.99 6.33 73.98 6.66 75 7 C73 8 73 8 70.5390625 7.2578125 C69.57742188 6.88398438 68.61578125 6.51015625 67.625 6.125 C62.33814781 4.08721061 58.09240743 2.88433976 52.40527344 2.79467773 C51.26880371 2.77449585 50.13233398 2.75431396 48.96142578 2.73352051 C47.17841064 2.70880676 47.17841064 2.70880676 45.359375 2.68359375 C44.26254395 2.66494263 43.16571289 2.6462915 42.03564453 2.6270752 C37.94051122 2.55880413 33.84524601 2.49863843 29.75 2.4375 C20.5925 2.293125 11.435 2.14875 2 2 C2 27.41 2 52.82 2 79 C1.34 79 0.68 79 0 79 C0 52.93 0 26.86 0 0 Z " fill="#D37E39" transform="translate(585,299)"/>
<path d="M0 0 C12.21 0 24.42 0 37 0 C38.32 2.31 39.64 4.62 41 7 C40.34 7 39.68 7 39 7 C39 6.34 39 5.68 39 5 C38.34 5 37.68 5 37 5 C36.505 4.01 36.505 4.01 36 3 C24.78 2.67 13.56 2.34 2 2 C2 31.04 2 60.08 2 90 C-15.16 90 -32.32 90 -50 90 C-50 89.67 -50 89.34 -50 89 C-33.5 89 -17 89 0 89 C0 59.63 0 30.26 0 0 Z " fill="#FEE9CA" transform="translate(587,426)"/>
<path d="M0 0 C11.04136837 12.42565933 11.81603142 35.05603053 11.14794922 50.75097656 C10.19100496 65.29779254 5.37279012 78.4996971 -2 91 C-2.33 91 -2.66 91 -3 91 C-3 89.35 -3 87.7 -3 86 C-2.34 86 -1.68 86 -1 86 C-0.87625 84.865625 -0.7525 83.73125 -0.625 82.5625 C-0.41875 81.386875 -0.2125 80.21125 0 79 C0.99 78.505 0.99 78.505 2 78 C2.58715803 75.82586296 2.58715803 75.82586296 2.9375 73.1875 C3.57082989 69.2152549 4.4367511 65.52559974 5.625 61.6875 C8.92213494 48.88390494 7.93473439 33.78418541 5 21 C4.83242188 20.13890625 4.66484375 19.2778125 4.4921875 18.390625 C3.73183825 14.60094779 3.1837643 12.27564645 1 9 C0.5859375 6.73828125 0.5859375 6.73828125 0.375 4.3125 C0.30023437 3.50425781 0.22546875 2.69601562 0.1484375 1.86328125 C0.07496094 0.94095703 0.07496094 0.94095703 0 0 Z " fill="#E08138" transform="translate(717,297)"/>
<path d="M0 0 C0.99 0 1.98 0 3 0 C3.2475 0.763125 3.495 1.52625 3.75 2.3125 C5.12176758 5.26180029 6.3918717 6.17431019 9 8 C9 8.66 9 9.32 9 10 C9.66 10 10.32 10 11 10 C12.72264494 13.29549466 14.29445932 16.33118845 15 20 C15.66 20 16.32 20 17 20 C17.87890625 21.7578125 18.7578125 23.515625 19.63671875 25.2734375 C21.21577368 27.56824274 21.21577368 27.56824274 26 29 C27.98 25.37 29.96 21.74 32 18 C32.66 18 33.32 18 34 18 C34.10957031 17.36191406 34.21914063 16.72382813 34.33203125 16.06640625 C34.49058594 15.24011719 34.64914062 14.41382813 34.8125 13.5625 C34.96332031 12.73878906 35.11414063 11.91507812 35.26953125 11.06640625 C35.51058594 10.38449219 35.75164063 9.70257813 36 9 C36.99 8.67 37.98 8.34 39 8 C39 7.34 39 6.68 39 6 C39.66 6 40.32 6 41 6 C38.79500988 11.65311758 36.17234692 17.08760601 33.5625 22.5625 C33.07201172 23.60341797 32.58152344 24.64433594 32.07617188 25.71679688 C31.59857422 26.71904297 31.12097656 27.72128906 30.62890625 28.75390625 C30.19650635 29.66470947 29.76410645 30.5755127 29.31860352 31.51391602 C28.06251625 33.88213239 26.67026859 35.90903499 25 38 C18.60703005 29.0256762 12.26818809 20.02972266 6.21142578 10.82397461 C4.61031936 8.39383277 3.00623762 6.00804722 1.22265625 3.70703125 C0 2 0 2 0 0 Z " fill="#E07629" transform="translate(759,484)"/>
<path d="M0 0 C4.4246231 4.11326074 7.80479078 8.67673381 11.25 13.625 C11.79140625 14.388125 12.3328125 15.15125 12.890625 15.9375 C16.8687996 21.60639881 16.8687996 21.60639881 18 25 C-2.13 25 -22.26 25 -43 25 C-43.66 23.68 -44.32 22.36 -45 21 C-44.34 21 -43.68 21 -43 21 C-43 21.66 -43 22.32 -43 23 C-24.19 23 -5.38 23 14 23 C12.68 20.69 11.36 18.38 10 16 C9.505 14.515 9.505 14.515 9 13 C8.01 13.33 7.02 13.66 6 14 C6 12.35 6 10.7 6 9 C5.071875 8.7215625 5.071875 8.7215625 4.125 8.4375 C0.94397134 6.28562767 0.80548053 3.62466237 0 0 Z " fill="#D0884E" transform="translate(729,490)"/>
<path d="M0 0 C0.99 0.33 1.98 0.66 3 1 C-5.79108007 12.86795809 -16.13443668 23.17155524 -30 29 C-30.99 29 -31.98 29 -33 29 C-27.74516002 36.39416218 -22.48944599 43.77704474 -17 51 C-17.33 51.66 -17.66 52.32 -18 53 C-24.33333476 48.26301263 -26.51192973 44.46421082 -29 37 C-29.99 36.67 -30.98 36.34 -32 36 C-34.00077956 33.05148276 -34.63155648 30.51867183 -34 27 C-31.33619469 24.9012443 -28.41323209 23.74136433 -25.3125 22.4375 C-21.99311563 21.23789332 -21.99311563 21.23789332 -20 19 C-18.68 19 -17.36 19 -16 19 C-15.67 17.68 -15.34 16.36 -15 15 C-14.01 15 -13.02 15 -12 15 C-12 14.34 -12 13.68 -12 13 C-11.236875 12.566875 -10.47375 12.13375 -9.6875 11.6875 C-6.60520571 9.75210591 -5.7276239 8.15479146 -4 5 C-2.68962066 3.31522656 -1.36176922 1.64351457 0 0 Z " fill="#D87C36" transform="translate(711,388)"/>
<path d="M0 0 C2.7213201 2.59957683 3.2266438 4.67590354 3.328125 8.30078125 C3.31752552 9.97152351 3.29095691 11.6422262 3.25 13.3125 C3.24484375 14.14201172 3.2396875 14.97152344 3.234375 15.82617188 C3.07116572 28.75030666 3.07116572 28.75030666 0.5 31.75 C-0.2425 32.36875 -0.2425 32.36875 -1 33 C-1.33 33.99 -1.66 34.98 -2 36 C-2.66 36 -3.32 36 -4 36 C-4.226875 36.721875 -4.45375 37.44375 -4.6875 38.1875 C-6.27279974 41.58457087 -8.15923323 43.5749552 -11 46 C-11.99 46 -12.98 46 -14 46 C-14 46.66 -14 47.32 -14 48 C-15.41377782 48.36552803 -16.83120576 48.71695495 -18.25 49.0625 C-19.43335938 49.35833984 -19.43335938 49.35833984 -20.640625 49.66015625 C-23.10394822 50.01497267 -24.65604132 49.76877544 -27 49 C-26.29875 48.72027344 -25.5975 48.44054687 -24.875 48.15234375 C-13.97866145 43.54804852 -7.06792873 37.66075148 -2.03125 26.9375 C1.17600889 18.38480963 0.24893829 8.98021817 0 0 Z " fill="#E07B30" transform="translate(675,328)"/>
<path d="M0 0 C13.2 0 26.4 0 40 0 C40.66 1.65 41.32 3.3 42 5 C42.66 4.67 43.32 4.34 44 4 C44.4125 5.0725 44.825 6.145 45.25 7.25 C46.6431264 10.55617557 48.41443394 12.50359139 51 15 C51 15.99 51 16.98 51 18 C51.66 18 52.32 18 53 18 C53 19.98 53 21.96 53 24 C49.63242997 19.85468166 46.42365564 15.60651439 43.25 11.3125 C42.74339844 10.63638672 42.23679687 9.96027344 41.71484375 9.26367188 C41.23660156 8.61591797 40.75835938 7.96816406 40.265625 7.30078125 C39.83024414 6.71466064 39.39486328 6.12854004 38.94628906 5.5246582 C38 4 38 4 38 2 C25.13 2.33 12.26 2.66 -1 3 C-0.67 2.01 -0.34 1.02 0 0 Z " fill="#DD7A31" transform="translate(586,424)"/>
<path d="M0 0 C0.66 0.33 1.32 0.66 2 1 C1.69408936 1.60658447 1.38817871 2.21316895 1.07299805 2.83813477 C-5.16106499 15.21456636 -11.30009978 27.62760603 -17.25048828 40.14306641 C-20.41930969 46.80448774 -23.65006085 53.42733458 -27 60 C-27.33 60 -27.66 60 -28 60 C-28.31549831 54.74169479 -27.73345236 51.52070968 -25 47 C-24.34 46.34 -23.68 45.68 -23 45 C-22.40165446 43.47943382 -21.86493344 41.93387912 -21.375 40.375 C-21.11460937 39.55773437 -20.85421875 38.74046875 -20.5859375 37.8984375 C-20.39257812 37.27195312 -20.19921875 36.64546875 -20 36 C-19.34 36 -18.68 36 -18 36 C-17.731875 35.0925 -17.46375 34.185 -17.1875 33.25 C-16 30 -16 30 -14.4375 28 C-12.57767338 25.41241514 -12.35536009 23.12716875 -12 20 C-11.34 20 -10.68 20 -10 20 C-10 19.34 -10 18.68 -10 18 C-9.34 18 -8.68 18 -8 18 C-7.90847656 17.31550781 -7.81695313 16.63101562 -7.72265625 15.92578125 C-6.82696359 12.29943637 -5.24973718 9.44952692 -3.4375 6.1875 C-3.10814453 5.59001953 -2.77878906 4.99253906 -2.43945312 4.37695312 C-1.63226733 2.91466002 -0.81695083 1.4568601 0 0 Z " fill="#DA7930" transform="translate(849,386)"/>
<path d="M0 0 C13.88367444 -0.04703002 27.76733625 -0.08200535 41.65107441 -0.10362434 C48.09968667 -0.11400679 54.54824496 -0.12806335 60.99682617 -0.15087891 C67.2343873 -0.17280665 73.4718969 -0.18461013 79.70949364 -0.18975449 C82.0745951 -0.19341481 84.43969415 -0.20056101 86.80477333 -0.21146011 C97.84610402 -0.26026159 108.85207143 -0.23678635 119.85620117 0.76220703 C121.01749652 0.85363637 121.01749652 0.85363637 122.20225239 0.94691277 C125.74381116 1.3280165 127.73364129 1.77946343 130.50898743 4.07736206 C131.00102158 4.71183258 131.49305573 5.3463031 132 6 C130.824375 5.71125 129.64875 5.4225 128.4375 5.125 C113.2760185 1.84277551 98.36547936 1.6627411 82.91015625 1.5859375 C80.5102016 1.56719364 78.11025332 1.54761792 75.71031189 1.5272522 C69.44202454 1.47626477 63.17371591 1.43646181 56.90533447 1.39910889 C50.48957193 1.35885816 44.07389538 1.3078627 37.65820312 1.2578125 C25.10552945 1.16144933 12.55280684 1.0769197 0 1 C0 0.67 0 0.34 0 0 Z " fill="#FFEDCB" transform="translate(536,252)"/>
<path d="M0 0 C20.13 0 40.26 0 61 0 C59.47426795 3.81433013 58.47253678 5.96552304 56 9 C56.33 6.69 56.66 4.38 57 2 C38.19 2 19.38 2 0 2 C0 2.99 0 3.98 0 5 C-0.66 5 -1.32 5 -2 5 C-1.34 3.35 -0.68 1.7 0 0 Z " fill="#D4884A" transform="translate(855,253)"/>
<path d="M0 0 C0.33 0 0.66 0 1 0 C1.33 2.64 1.66 5.28 2 8 C1.360625 8.226875 0.72125 8.45375 0.0625 8.6875 C-2.23736015 9.81017068 -2.23736015 9.81017068 -2.5078125 12.265625 C-2.67023437 13.16796875 -2.83265625 14.0703125 -3 15 C-3.60588601 16.70225118 -4.25265767 18.39045098 -4.9375 20.0625 C-5.27652344 20.89910156 -5.61554687 21.73570312 -5.96484375 22.59765625 C-6.30644531 23.39042969 -6.64804687 24.18320312 -7 25 C-7.46986328 26.11181641 -7.46986328 26.11181641 -7.94921875 27.24609375 C-9 29 -9 29 -11.875 30 C-15 30 -15 30 -17.25 28.3125 C-20.75310763 23.68339348 -21.22691635 20.89982522 -21 15 C-17.94998169 18.66002197 -14 24.07851471 -14 29 C-13.34 29 -12.68 29 -12 29 C-11.88664307 28.29335205 -11.77328613 27.5867041 -11.65649414 26.85864258 C-10.94179735 23.74656198 -9.8424949 21.15570743 -8.49609375 18.26171875 C-8.00302734 17.19501953 -7.50996094 16.12832031 -7.00195312 15.02929688 C-6.48568359 13.92650391 -5.96941406 12.82371094 -5.4375 11.6875 C-4.91736328 10.56537109 -4.39722656 9.44324219 -3.86132812 8.28710938 C-2.57900626 5.52247049 -1.29175153 2.76024234 0 0 Z " fill="#DC803A" transform="translate(791,391)"/>
<path d="M0 0 C0.66 0 1.32 0 2 0 C0.46114301 4.99439775 -1.57379894 9.62157448 -3.78125 14.34375 C-4.15142242 15.1425206 -4.52159485 15.9412912 -4.90298462 16.76426697 C-6.09917742 19.34416041 -7.29961612 21.92205435 -8.5 24.5 C-9.72798022 27.14637644 -10.95477347 29.79330075 -12.181427 32.44029236 C-12.99055814 34.18626787 -13.80002491 35.93208789 -14.60983276 37.67774963 C-17.81231572 44.58383465 -20.98246612 51.50389718 -24.125 58.4375 C-24.53169922 59.3346875 -24.93839844 60.231875 -25.35742188 61.15625 C-26.23931532 63.10369872 -27.11986292 65.05175687 -28 67 C-29.25945071 63.16122365 -28.46232347 61.23489923 -26.69726562 57.609375 C-26.36404297 56.95453125 -26.03082031 56.2996875 -25.6875 55.625 C-23.45568724 51.13453905 -21.52692921 46.79305135 -20 42 C-19.02995879 39.98529902 -18.03755118 37.98077953 -17 36 C-16.34 36 -15.68 36 -15 36 C-15 34.35 -15 32.7 -15 31 C-14.34 31 -13.68 31 -13 31 C-13 29.68 -13 28.36 -13 27 C-12.34 27 -11.68 27 -11 27 C-11 25.68 -11 24.36 -11 23 C-10.34 23 -9.68 23 -9 23 C-8.67 20.36 -8.34 17.72 -8 15 C-7.34 15 -6.68 15 -6 15 C-5.9175 14.13375 -5.835 13.2675 -5.75 12.375 C-4.89008133 8.50536598 -3.28040293 6.20681662 -1 3 C-0.67 2.01 -0.34 1.02 0 0 Z " fill="#FEECD0" transform="translate(826,311)"/>
<path d="M0 0 C4.03438436 -0.05026066 8.06864203 -0.0861162 12.10327148 -0.10986328 C13.4695148 -0.11978563 14.83573769 -0.13332786 16.2019043 -0.15087891 C36.0261121 -0.39877264 52.5221673 3.52877223 70 13 C70 13.33 70 13.66 70 14 C68.35 14 66.7 14 65 14 C65 13.34 65 12.68 65 12 C63.98421875 11.74605469 62.9684375 11.49210937 61.921875 11.23046875 C49.4609375 8.11523438 49.4609375 8.11523438 37 5 C37 4.34 37 3.68 37 3 C28.58705191 2.22472267 20.19231713 1.74150316 11.75 1.4375 C10.61175781 1.39431641 9.47351563 1.35113281 8.30078125 1.30664062 C5.53393504 1.20201199 2.76702274 1.0998311 0 1 C0 0.67 0 0.34 0 0 Z " fill="#D37935" transform="translate(620,254)"/>
<path d="M0 0 C0.66 0 1.32 0 2 0 C0.58994346 4.56048841 -1.23658167 8.79463393 -3.34375 13.06640625 C-3.66934906 13.73441757 -3.99494812 14.40242889 -4.33041382 15.09068298 C-5.38349089 17.24966128 -6.44160042 19.40612668 -7.5 21.5625 C-8.95208281 24.53179023 -10.40197916 27.50214514 -11.8515625 30.47265625 C-12.20912628 31.20453156 -12.56669006 31.93640686 -12.93508911 32.69046021 C-15.06050138 37.04786379 -17.15315357 41.41869899 -19.2109375 45.80859375 C-19.66919922 46.78562256 -20.12746094 47.76265137 -20.59960938 48.76928711 C-21.43144767 50.55031913 -22.25850471 52.33359442 -23.08007812 54.11938477 C-25.78128922 59.89064461 -25.78128922 59.89064461 -28 61 C-27.43500879 57.61005272 -26.52565402 55.05130804 -25 52 C-24.690625 50.906875 -24.38125 49.81375 -24.0625 48.6875 C-22.31652863 42.62795232 -20.53359319 38.38247342 -16 34 C-15.2127322 31.8618034 -15.2127322 31.8618034 -15 30 C-14.34 30 -13.68 30 -13 30 C-12.75121094 29.01 -12.50242187 28.02 -12.24609375 27 C-11.02305885 22.72314268 -9.11492665 18.93162095 -7.0625 15 C-4.51408572 10.06392484 -2.13160986 5.13190086 0 0 Z " fill="#D37F3E" transform="translate(909,262)"/>
<path d="M0 0 C4.37800651 4.37800651 4.17830596 11.00880336 4.3125 16.875 C4.14191389 26.85428762 1.72525811 36.45028046 -5.65625 43.60546875 C-7.06193777 44.78903133 -8.5258152 45.90293224 -10 47 C-9.38722388 44.03824877 -8.74627478 42.61941217 -7 40 C-6.34 40 -5.68 40 -5 40 C-4.67 39.01 -4.34 38.02 -4 37 C-3.34 37 -2.68 37 -2 37 C-2.061875 35.88625 -2.061875 35.88625 -2.125 34.75 C-2 32 -2 32 -1.03515625 30.19140625 C3.04084337 21.56259196 0.83262891 9.2613954 0 0 Z " fill="#FDEACF" transform="translate(672,323)"/>
<path d="M0 0 C0.33 0 0.66 0 1 0 C1.60635811 3.37828088 1.34708958 5.43457987 -0.453125 8.3671875 C-5.32569544 14.77523181 -5.32569544 14.77523181 -9 16 C-9.69658363 17.65438613 -10.36096883 19.32254318 -11 21 C-11.99 21.99 -12.98 22.98 -14 24 C-13.01 27.63 -12.02 31.26 -11 35 C-16.19047619 29.80952381 -16.19047619 29.80952381 -18 26 C-17.643421 22.11004724 -15.58667683 20.22642555 -12.9375 17.5 C-8.47881382 12.72028841 -5.02953042 7.78461737 -1.53125 2.2734375 C-1.0259375 1.52320313 -0.520625 0.77296875 0 0 Z " fill="#D87A36" transform="translate(733,395)"/>
<path d="M0 0 C1.9375 0.3125 1.9375 0.3125 4 1 C4.33 1.99 4.66 2.98 5 4 C5.66 4 6.32 4 7 4 C7.33 4.66 7.66 5.32 8 6 C24.5 6 41 6 58 6 C58.33 4.35 58.66 2.7 59 1 C61 2.8125 61 2.8125 63 5 C63 5.99 63 6.98 63 8 C44.19 8 25.38 8 6 8 C6 7.34 6 6.68 6 6 C5.01 6 4.02 6 3 6 C2.01 4.02 1.02 2.04 0 0 Z " fill="#E77827" transform="translate(680,505)"/>
<path d="M0 0 C0.66 0 1.32 0 2 0 C0.67021991 4.26876947 -0.96375658 8.17378146 -2.96875 12.16796875 C-3.53980469 13.30814453 -4.11085938 14.44832031 -4.69921875 15.62304688 C-5.59060547 17.38745117 -5.59060547 17.38745117 -6.5 19.1875 C-7.10058335 20.38720818 -7.70084662 21.58707665 -8.30078125 22.78710938 C-12.71865999 31.57798999 -12.71865999 31.57798999 -15 35 C-14.65276437 29.50409808 -14.14243525 25.65080418 -11 21 C-10.690625 20.05125 -10.38125 19.1025 -10.0625 18.125 C-8.79301629 14.39122439 -7.02692695 11.37821159 -5 8 C-4.34 8 -3.68 8 -3 8 C-2.87625 7.4225 -2.7525 6.845 -2.625 6.25 C-1.99351176 3.97664233 -1.11141809 2.0746471 0 0 Z " fill="#D87E3A" transform="translate(815,455)"/>
<path d="M0 0 C0.33 0 0.66 0 1 0 C1.05828635 4.20827473 1.093693 8.41644489 1.125 12.625 C1.15013672 14.40970703 1.15013672 14.40970703 1.17578125 16.23046875 C1.18222656 17.38417969 1.18867187 18.53789062 1.1953125 19.7265625 C1.20578613 20.78439941 1.21625977 21.84223633 1.22705078 22.93212891 C0.98188352 26.24478674 0.15185072 28.89605097 -1 32 C-1.3582631 33.51515435 -1.69413485 35.03590521 -2 36.5625 C-2.7052292 39.87595784 -3.59979224 42.89953995 -5 46 C-5.99 46 -6.98 46 -8 46 C-7.81824219 45.41734375 -7.63648438 44.8346875 -7.44921875 44.234375 C-3.76834805 32.22907364 -1.09393876 20.62092669 -0.4375 8.0625 C-0.37272461 6.89364258 -0.37272461 6.89364258 -0.30664062 5.70117188 C-0.20171923 3.80092883 -0.1004755 1.90048331 0 0 Z " fill="#FDECD1" transform="translate(728,333)"/>
<path d="M0 0 C0.33 0 0.66 0 1 0 C1.25 7.625 1.25 7.625 -1 11 C-1.66 11 -2.32 11 -3 11 C-2.896875 11.804375 -2.79375 12.60875 -2.6875 13.4375 C-3.12619247 18.43859412 -5.42083351 21.77688886 -8 26 C-8.77494367 27.35181866 -9.54623458 28.70574331 -10.3125 30.0625 C-11.1478125 31.5165625 -11.1478125 31.5165625 -12 33 C-12.66 33 -13.32 33 -14 33 C-12.63568604 28.70326019 -11.02112055 24.6216523 -9.1796875 20.5078125 C-8.64472656 19.30898438 -8.10976563 18.11015625 -7.55859375 16.875 C-6.99745717 15.62497246 -6.43625849 14.3749728 -5.875 13.125 C-5.30573112 11.85167802 -4.73671824 10.57824156 -4.16796875 9.3046875 C-2.78115731 6.20199072 -1.39175486 3.10048172 0 0 Z " fill="#D87F3A" transform="translate(838,288)"/>
<path d="M0 0 C1.0325013 0.24114784 1.0325013 0.24114784 2.08586121 0.48716736 C5.31104529 1.05473802 8.3513646 1.16149054 11.6262207 1.20532227 C12.27068649 1.21522186 12.91515228 1.22512146 13.57914734 1.23532104 C15.69465549 1.26673387 17.81018605 1.29161279 19.92578125 1.31640625 C21.39837708 1.33699328 22.87096724 1.3579902 24.34355164 1.37937927 C28.20845933 1.43441943 32.07341874 1.48390786 35.93841553 1.53222656 C39.88672457 1.58257392 43.83495903 1.63819072 47.78320312 1.69335938 C55.52207215 1.80071989 63.26100345 1.90221338 71 2 C71 2.33 71 2.66 71 3 C48.23 3.33 25.46 3.66 2 4 C1.34 2.68 0.68 1.36 0 0 Z " fill="#0E0F0E" transform="translate(874,230)"/>
<path d="M0 0 C3.48331435 3.01887244 4.79157144 5.56909529 6 10 C5.34 10 4.68 10 4 10 C3.67 9.34 3.34 8.68 3 8 C2.34 8 1.68 8 1 8 C-1.14710968 13.62338249 -3.13236819 19.27789404 -5 25 C-5.66 25 -6.32 25 -7 25 C-7.12375 25.556875 -7.2475 26.11375 -7.375 26.6875 C-8.05976855 29.22114364 -8.99133763 31.57921032 -10 34 C-10.66 34 -11.32 34 -12 34 C-10.58192622 29.52761347 -8.88695626 25.28853694 -7 21 C-6.34 21 -5.68 21 -5 21 C-4.89042969 20.32195312 -4.78085937 19.64390625 -4.66796875 18.9453125 C-3.56212481 12.4540985 -2.03701908 6.26043863 0 0 Z " fill="#D5813F" transform="translate(746,361)"/>
<path d="M0 0 C0.87840996 3.09720845 0.99435406 4.90645403 0 8 C-0.66 8 -1.32 8 -2 8 C-2.04898438 8.59167969 -2.09796875 9.18335938 -2.1484375 9.79296875 C-2.22320313 10.58316406 -2.29796875 11.37335938 -2.375 12.1875 C-2.44460938 12.96480469 -2.51421875 13.74210937 -2.5859375 14.54296875 C-3.37391209 19.21878022 -5.40110132 22.89466024 -8 26.8125 C-8.515625 27.60269531 -9.03125 28.39289063 -9.5625 29.20703125 C-10.036875 29.79871094 -10.51125 30.39039063 -11 31 C-11.66 31 -12.32 31 -13 31 C-10.78157548 23.87303484 -7.95177996 17.20419332 -4.8125 10.4375 C-4.34908203 9.42880859 -3.88566406 8.42011719 -3.40820312 7.38085938 C-2.27627662 4.9186275 -1.1401475 2.45843306 0 0 Z " fill="#DB7F38" transform="translate(823,321)"/>
<path d="M0 0 C3.20575987 0.34347427 3.97516759 0.9707854 6.125 3.5 C6.74375 4.325 7.3625 5.15 8 6 C8.66 6.33 9.32 6.66 10 7 C10.40729228 9.32156597 10.74438677 11.6568787 11 14 C12.32 14.33 13.64 14.66 15 15 C15.33 17.64 15.66 20.28 16 23 C11.7302331 19.21731816 8.85572694 14.54167511 5.75 9.8125 C5.19570313 8.98041016 4.64140625 8.14832031 4.0703125 7.29101562 C0 1.14043257 0 1.14043257 0 0 Z " fill="#DB7931" transform="translate(741,458)"/>
<path d="M0 0 C0.66 0 1.32 0 2 0 C0.60633871 4.19596947 -1.35840221 6.79298574 -4.375 10 C-10.30141301 15.43756675 -10.30141301 15.43756675 -13 22.375 C-11.67852438 25.8438735 -9.92877784 28.82684936 -8 32 C-11.01574271 30.96008872 -11.97991051 30.03085171 -13.75 27.3125 C-15.13220349 23.64966075 -15.23295137 20.88252283 -15 17 C-14.01 17 -13.02 17 -12 17 C-11.896875 16.360625 -11.79375 15.72125 -11.6875 15.0625 C-11.460625 14.381875 -11.23375 13.70125 -11 13 C-10.01 12.67 -9.02 12.34 -8 12 C-7.26676204 9.98491642 -7.26676204 9.98491642 -7 8 C-6.01 8 -5.02 8 -4 8 C-3.67 6.35 -3.34 4.7 -3 3 C-2.01 2.67 -1.02 2.34 0 2 C0 1.34 0 0.68 0 0 Z " fill="#FDECD2" transform="translate(729,398)"/>
<path d="M0 0 C1.86159004 0.00022659 1.86159004 0.00022659 3.76078796 0.00045776 C5.11502238 0.01067098 6.46925516 0.02110297 7.82348633 0.03173828 C9.20925187 0.03546911 10.59502006 0.03831575 11.98078918 0.04031372 C15.62555238 0.0479447 19.27015582 0.06758848 22.91485596 0.08972168 C26.63502847 0.1101917 30.35522684 0.1193179 34.07543945 0.12939453 C41.37303827 0.15083498 48.67050553 0.18496434 55.96801758 0.22705078 C55.96801758 0.55705078 55.96801758 0.88705078 55.96801758 1.22705078 C35.83801758 1.55705078 15.70801758 1.88705078 -5.03198242 2.22705078 C-6.02198242 4.20705078 -7.01198242 6.18705078 -8.03198242 8.22705078 C-8.36198242 8.22705078 -8.69198242 8.22705078 -9.03198242 8.22705078 C-9.21948242 5.35205078 -9.21948242 5.35205078 -9.03198242 2.22705078 C-5.52555536 -0.11056726 -4.14342292 -0.01680902 0 0 Z " fill="#FEEDCD" transform="translate(860.031982421875,251.77294921875)"/>
<path d="M0 0 C3.56080988 4.52790312 6.03493328 9.5320719 8.6875 14.625 C9.19861328 15.59179688 9.70972656 16.55859375 10.23632812 17.5546875 C10.71908203 18.47765625 11.20183594 19.400625 11.69921875 20.3515625 C12.14096436 21.19541504 12.58270996 22.03926758 13.0378418 22.90869141 C14 25 14 25 14 27 C11 27 11 27 9.3984375 25.78515625 C7.75192405 23.68332205 7.26416603 22.02321711 6.625 19.4375 C5.31531567 14.65400054 3.3805059 10.55938236 0.98828125 6.2265625 C0 4 0 4 0 0 Z " fill="#DB7D37" transform="translate(756,379)"/>
<path d="M0 0 C2.475 0.495 2.475 0.495 5 1 C5.268125 1.969375 5.53625 2.93875 5.8125 3.9375 C6.204375 4.948125 6.59625 5.95875 7 7 C7.99 7.33 8.98 7.66 10 8 C11.1328125 9.9609375 11.1328125 9.9609375 12.125 12.375 C12.45757813 13.16648437 12.79015625 13.95796875 13.1328125 14.7734375 C13.80422288 16.49732902 14.41497061 18.24491183 15 20 C15.66 20 16.32 20 17 20 C17.33 21.65 17.66 23.3 18 25 C13.90149585 21.27408713 10.89659492 17.14475768 7.78125 12.57421875 C5.64973034 9.49379889 3.37863237 6.53987624 1.06640625 3.59375 C0 2 0 2 0 0 Z " fill="#D87D36" transform="translate(650,463)"/>
<path d="M0 0 C3.96814965 3.75365507 7.16796503 7.7292482 10.3125 12.1875 C10.76689453 12.81591797 11.22128906 13.44433594 11.68945312 14.09179688 C15 18.74647556 15 18.74647556 15 21 C10.53416736 19.64251029 8.7562333 17.85030176 6.1875 14 C5.58292969 13.113125 4.97835937 12.22625 4.35546875 11.3125 C3 9 3 9 3 7 C2.34 7 1.68 7 1 7 C0.67 4.69 0.34 2.38 0 0 Z " fill="#E17A2E" transform="translate(694,441)"/>
<path d="M0 0 C0.66 0 1.32 0 2 0 C-0.16541281 7.01421093 -2.97171742 13.47037508 -6.1875 20.0625 C-6.65091797 21.02349609 -7.11433594 21.98449219 -7.59179688 22.97460938 C-8.7230646 25.3187827 -9.85919011 27.66045971 -11 30 C-11.33 30 -11.66 30 -12 30 C-11.54177532 26.53058454 -11.10868317 23.32604951 -10 20 C-9.34 20 -8.68 20 -8 20 C-8 18.35 -8 16.7 -8 15 C-7.34 15 -6.68 15 -6 15 C-5.72736328 14.00419922 -5.72736328 14.00419922 -5.44921875 12.98828125 C-2.78647148 3.63452802 -2.78647148 3.63452802 0 0 Z " fill="#FEEFD4" transform="translate(795,378)"/>
<path d="M0 0 C18.81 0 37.62 0 57 0 C56.67 2.31 56.34 4.62 56 7 C55.67 7 55.34 7 55 7 C54.505 4.525 54.505 4.525 54 2 C36.18 2 18.36 2 0 2 C0 1.34 0 0.68 0 0 Z " fill="#EC721C" transform="translate(855,255)"/>
<path d="M0 0 C0.99 0 1.98 0 3 0 C3.33 0.99 3.66 1.98 4 3 C4.99 3.33 5.98 3.66 7 4 C10 8.33333333 10 8.33333333 10 11 C10.66 11 11.32 11 12 11 C14.169283 14.1635377 15.66749209 17.4124787 17 21 C16.34 21.33 15.68 21.66 15 22 C13.05953963 19.27292725 11.12316837 16.54297568 9.1875 13.8125 C8.64029297 13.04357422 8.09308594 12.27464844 7.52929688 11.48242188 C4.87209419 7.7301296 2.28295715 3.99717761 0 0 Z " fill="#FCE8CC" transform="translate(684,426)"/>
<path d="M0 0 C1.60495567 0.11442461 3.20898119 0.24194694 4.8125 0.375 C5.70582031 0.44460938 6.59914063 0.51421875 7.51953125 0.5859375 C10 1 10 1 13 3 C13 3.66 13 4.32 13 5 C15.97 5.495 15.97 5.495 19 6 C19.33 6.99 19.66 7.98 20 9 C20.66 9 21.32 9 22 9 C22.33 10.32 22.66 11.64 23 13 C22.01902344 12.42765625 21.03804687 11.8553125 20.02734375 11.265625 C15.94860109 8.93491491 11.77313889 6.83027905 7.5625 4.75 C6.83095703 4.38648438 6.09941406 4.02296875 5.34570312 3.6484375 C3.56472339 2.76376783 1.78249279 1.88161708 0 1 C0 0.67 0 0.34 0 0 Z " fill="#FBE6C9" transform="translate(675,260)"/>
<path d="M0 0 C0.66 0.33 1.32 0.66 2 1 C-1.14783422 9.6356514 -4.73146434 17.85897838 -9 26 C-10 23 -10 23 -8.6875 20.25 C-8.130625 19.1775 -7.57375 18.105 -7 17 C-6.32215008 14.66989091 -5.65583207 12.33640176 -5 10 C-3.64476264 6.42777108 -2.12842174 3.19263261 0 0 Z " fill="#DD7A30" transform="translate(891,297)"/>
<path d="M0 0 C4.07412189 3.69926322 7.05121813 8.07939503 10.1875 12.5625 C10.73341797 13.33013672 11.27933594 14.09777344 11.84179688 14.88867188 C15.87254096 20.61762289 15.87254096 20.61762289 17 24 C16.34 24 15.68 24 15 24 C14.7525 23.21625 14.505 22.4325 14.25 21.625 C12.81399177 18.60938271 11.99779308 18.21785344 9 17 C6.4345406 14.4345406 6.45953913 12.52313332 6 9 C5.34 9 4.68 9 4 9 C1.3879169 7.11930017 1.00531495 6.02464205 0.3125 2.8125 C0.209375 1.884375 0.10625 0.95625 0 0 Z " fill="#FDE8CA" transform="translate(636,445)"/>
<path d="M0 0 C3.75376152 1.25125384 4.24073289 2.5652404 6 6 C6 6.66 6 7.32 6 8 C6.66 8 7.32 8 8 8 C9.33203125 9.6875 9.33203125 9.6875 10.8125 12 C11.33585938 12.81726563 11.85921875 13.63453125 12.3984375 14.4765625 C12.92695312 15.30929687 13.45546875 16.14203125 14 17 C14.50789062 17.75023437 15.01578125 18.50046875 15.5390625 19.2734375 C16.00054688 19.96695312 16.46203125 20.66046875 16.9375 21.375 C17.56978516 22.31472656 17.56978516 22.31472656 18.21484375 23.2734375 C19 25 19 25 18 28 C16.14783572 25.22175358 14.2959459 22.44332915 12.4453125 19.6640625 C10.71724277 17.07124677 8.98150865 14.48371778 7.2421875 11.8984375 C6.78634277 11.21918213 6.33049805 10.53992676 5.86083984 9.84008789 C4.95934437 8.49690169 4.05604571 7.15492384 3.15087891 5.81420898 C0 1.1126131 0 1.1126131 0 0 Z " fill="#D38243" transform="translate(722,430)"/>
<path d="M0 0 C1.125 1.5625 1.125 1.5625 2 4 C1.125 7.75 1.125 7.75 0 11 C-0.66 11 -1.32 11 -2 11 C-2.04125 11.78375 -2.0825 12.5675 -2.125 13.375 C-3.3725284 18.54333195 -6.13515646 22.56693935 -9 27 C-9.33 25.68 -9.66 24.36 -10 23 C-9.34 23 -8.68 23 -8 23 C-7.34 20.36 -6.68 17.72 -6 15 C-5.34 15 -4.68 15 -4 15 C-3.34 11.7 -2.68 8.4 -2 5 C-1.34 5 -0.68 5 0 5 C0 3.35 0 1.7 0 0 Z " fill="#FCE8CA" transform="translate(741,371)"/>
<path d="M0 0 C6.22043798 4.79492095 10.81363729 10.34531434 15 17 C15 17.66 15 18.32 15 19 C14.34 19 13.68 19 13 19 C12.67 17.68 12.34 16.36 12 15 C11.34 15 10.68 15 10 15 C10 14.34 10 13.68 10 13 C9.01 12.67 8.02 12.34 7 12 C7 11.34 7 10.68 7 10 C6.34 10 5.68 10 5 10 C1.98295115 6.8000997 0.50109958 4.38462134 0 0 Z " fill="#D87D3B" transform="translate(702,278)"/>
<path d="M0 0 C0.66 0 1.32 0 2 0 C0.71882993 3.27381995 -0.65271307 6.47069744 -2.1640625 9.64453125 C-2.76347656 10.90620117 -2.76347656 10.90620117 -3.375 12.19335938 C-3.7875 13.05767578 -4.2 13.92199219 -4.625 14.8125 C-5.04523437 15.69615234 -5.46546875 16.57980469 -5.8984375 17.49023438 C-6.93092761 19.66081018 -7.9648212 21.83070552 -9 24 C-10.15957207 20.52128379 -9.77456651 19.65780355 -8.5625 16.3125 C-8.27503906 15.50425781 -7.98757813 14.69601562 -7.69140625 13.86328125 C-7.46324219 13.24839844 -7.23507812 12.63351562 -7 12 C-6.34 12 -5.68 12 -5 12 C-4.89042969 11.36191406 -4.78085937 10.72382813 -4.66796875 10.06640625 C-4.50941406 9.24011719 -4.35085938 8.41382813 -4.1875 7.5625 C-4.03667969 6.73878906 -3.88585937 5.91507812 -3.73046875 5.06640625 C-3.36888672 4.04353516 -3.36888672 4.04353516 -3 3 C-2.01 2.67 -1.02 2.34 0 2 C0 1.34 0 0.68 0 0 Z " fill="#D77D37" transform="translate(798,490)"/>
<path d="M0 0 C0.33 0 0.66 0 1 0 C1.33 2.64 1.66 5.28 2 8 C1.0409375 8.3403125 1.0409375 8.3403125 0.0625 8.6875 C-2.21930049 9.81636577 -2.21930049 9.81636577 -2.625 12.25 C-2.74875 13.1575 -2.8725 14.065 -3 15 C-3.64389782 17.00744615 -4.30562253 19.00945124 -5 21 C-7.23179214 13.72660546 -3.09857764 6.49798806 0 0 Z " fill="#DF782C" transform="translate(791,391)"/>
<path d="M0 0 C0.33 0 0.66 0 1 0 C0.49736651 6.05197896 -0.85880888 10.80703225 -3.375 16.3125 C-3.67921875 17.01439453 -3.9834375 17.71628906 -4.296875 18.43945312 C-5.8240894 21.86263242 -7.25208289 24.46520836 -10 27 C-10 25.35 -10 23.7 -10 22 C-9.34 22 -8.68 22 -8 22 C-7.896875 20.906875 -7.79375 19.81375 -7.6875 18.6875 C-7 15 -7 15 -5.59375 13.65625 C-3.34684706 11.32123322 -2.77076065 8.88554279 -1.8125 5.8125 C-1.29623047 4.18248047 -1.29623047 4.18248047 -0.76953125 2.51953125 C-0.51558594 1.68808594 -0.26164063 0.85664063 0 0 Z " fill="#D47F3C" transform="translate(724,361)"/>
<path d="M0 0 C0.33 0 0.66 0 1 0 C1.53132389 2.58157368 2.05034379 5.16461756 2.5625 7.75 C2.71396484 8.47960937 2.86542969 9.20921875 3.02148438 9.9609375 C3.74557178 13.66557073 4.09817231 16.39322322 3 20 C3 19.01 3 18.02 3 17 C2.01 16.67 1.02 16.34 0 16 C0 15.01 0 14.02 0 13 C-0.99 13.495 -0.99 13.495 -2 14 C-2 10.7 -2 7.4 -2 4 C-1.34 4 -0.68 4 0 4 C0 2.68 0 1.36 0 0 Z " fill="#333333" transform="translate(477,415)"/>
<path d="M0 0 C4.1678466 0.80150896 6.42444366 1.30933239 9.1875 4.625 C9.785625 5.73875 10.38375 6.8525 11 8 C11.55880859 8.98806641 11.55880859 8.98806641 12.12890625 9.99609375 C14.17351093 13.7647205 15.55036344 16.59709245 15 21 C13.37878046 18.56817069 12.03884796 16.20444595 10.6875 13.625 C8.57345308 9.77730988 6.24602548 6.98976031 3 4 C1.97186389 2.68824014 0.95915568 1.3630107 0 0 Z " fill="#D87F3C" transform="translate(660,307)"/>
<path d="M0 0 C0.99 0 1.98 0 3 0 C1.4719611 5.09882455 -0.71036856 9.65665659 -3.125 14.375 C-3.49753906 15.11105469 -3.87007812 15.84710938 -4.25390625 16.60546875 C-5.1656122 18.40550358 -6.08229932 20.20301402 -7 22 C-7.33 22 -7.66 22 -8 22 C-7.67 19.36 -7.34 16.72 -7 14 C-6.34 14 -5.68 14 -5 14 C-4.87753906 13.44828125 -4.75507812 12.8965625 -4.62890625 12.328125 C-3.92006389 9.70408745 -2.96388744 7.2663047 -1.9375 4.75 C-1.57527344 3.85796875 -1.21304688 2.9659375 -0.83984375 2.046875 C-0.56269531 1.37140625 -0.28554688 0.6959375 0 0 Z " fill="#D7813F" transform="translate(878,324)"/>
<path d="M0 0 C2.86957408 3.37596951 4.25509829 6.84944936 5.75 11 C6.42289063 12.8253125 6.42289063 12.8253125 7.109375 14.6875 C7.94239934 17.78576596 8.19047957 19.09639129 7 22 C6.34 21.67 5.68 21.34 5 21 C4.4375 19.0390625 4.4375 19.0390625 4 16.625 C3.39799887 13.32474381 2.92394018 11.88591027 1 9 C0.5859375 6.73828125 0.5859375 6.73828125 0.375 4.3125 C0.30023437 3.50425781 0.22546875 2.69601562 0.1484375 1.86328125 C0.09945312 1.24839844 0.05046875 0.63351562 0 0 Z " fill="#D68243" transform="translate(717,297)"/>
<path d="M0 0 C4.00936388 3.77819335 7.17270443 7.79584593 10.3125 12.3125 C10.76689453 12.95767578 11.22128906 13.60285156 11.68945312 14.26757812 C12.79735952 15.84197142 13.89930525 17.42055646 15 19 C14.67 19.66 14.34 20.32 14 21 C13.4225 20.2575 12.845 19.515 12.25 18.75 C10.10290284 16.01924077 10.10290284 16.01924077 7.8125 13.875 C6 12 6 12 5 9 C4.34 8.7525 3.68 8.505 3 8.25 C2.34 7.8375 1.68 7.425 1 7 C0.25 3.375 0.25 3.375 0 0 Z " fill="#D6803F" transform="translate(714,469)"/>
<path d="M0 0 C1.61373148 4.85217219 -0.06963899 8.45658932 -2 13 C-3.1935639 15.23679341 -4.40991049 16.99956481 -6 19 C-6.66 19 -7.32 19 -8 19 C-6.44071133 12.13912984 -3.24242526 6.20955026 0 0 Z " fill="#FCE9CC" transform="translate(803,483)"/>
<path d="M0 0 C0.66 0 1.32 0 2 0 C0.8905928 3.48670834 -0.26337666 6.77484237 -2 10 C-2.99 10 -3.98 10 -5 10 C-5.103125 10.515625 -5.20625 11.03125 -5.3125 11.5625 C-6.24263866 14.86026435 -7.61395512 17.86633332 -9 21 C-9.33 21 -9.66 21 -10 21 C-10.74304413 16.24451757 -8.73243053 13.43931262 -6.2890625 9.57421875 C-5.86367188 9.05472656 -5.43828125 8.53523438 -5 8 C-4.34 8 -3.68 8 -3 8 C-2.87625 7.4225 -2.7525 6.845 -2.625 6.25 C-1.99351176 3.97664233 -1.11141809 2.0746471 0 0 Z " fill="#E77423" transform="translate(815,455)"/>
<path d="M0 0 C0.33 0 0.66 0 1 0 C1.60987167 3.39785643 1.35450669 5.43613897 -0.48828125 8.3671875 C-5.35842003 14.67921001 -5.35842003 14.67921001 -8 16 C-7.731875 15.484375 -7.46375 14.96875 -7.1875 14.4375 C-6.24808933 12.509236 -5.39002442 10.54136275 -4.5625 8.5625 C-3.22603834 5.51536742 -1.84300682 2.76451023 0 0 Z " fill="#DF792C" transform="translate(733,395)"/>
<path d="M0 0 C0.78821819 2.29543427 1.13558044 3.58008982 0.37915039 5.92285156 C0.03875732 6.5722168 -0.30163574 7.22158203 -0.65234375 7.890625 C-1.01650391 8.59960938 -1.38066406 9.30859375 -1.75585938 10.0390625 C-2.14580078 10.76867187 -2.53574219 11.49828125 -2.9375 12.25 C-3.32357422 12.99507813 -3.70964844 13.74015625 -4.10742188 14.5078125 C-5.06090166 16.34414394 -6.02905677 18.17284207 -7 20 C-7.66 20 -8.32 20 -9 20 C-7.55676531 15.26210835 -5.62773267 11.01141849 -3.375 6.625 C-2.88773438 5.66400391 -2.88773438 5.66400391 -2.390625 4.68359375 C-1.59742593 3.12052499 -0.79922969 1.55999378 0 0 Z " fill="#FBE4C3" transform="translate(902,281)"/>
<path d="M0 0 C0.66 0.33 1.32 0.66 2 1 C1.45592551 4.91733635 0.35392615 6.89281749 -2 10 C-3.52066749 13.89867344 -3.52066749 13.89867344 -4 18 C-4.99 18 -5.98 18 -7 18 C-6.35534798 13.66695924 -4.81074878 10.13327935 -2.9375 6.1875 C-2.11572266 4.44533203 -2.11572266 4.44533203 -1.27734375 2.66796875 C-0.85582031 1.78753906 -0.43429687 0.90710938 0 0 Z " fill="#121413" transform="translate(947,233)"/>
<path d="M0 0 C0 4.62 0 9.24 0 14 C-2 13 -2 13 -3.125 10.25 C-3.93255851 7.25049698 -4.4261082 5.06797904 -4 2 C-1 0 -1 0 0 0 Z " fill="#080808" transform="translate(921,294)"/>
<path d="M0 0 C0.99 0 1.98 0 3 0 C3.33 1.98 3.66 3.96 4 6 C4.66 6 5.32 6 6 6 C6.69906942 7.59915881 7.38389468 9.20455045 8.0625 10.8125 C8.44535156 11.70582031 8.82820312 12.59914063 9.22265625 13.51953125 C10 16 10 16 9 19 C6.03 12.73 3.06 6.46 0 0 Z " fill="#FCE5C6" transform="translate(754,374)"/>
<path d="M0 0 C0.78375 0.04125 1.5675 0.0825 2.375 0.125 C-1.41476452 4.41924616 -7.18722345 6.73020234 -12.8359375 7.37890625 C-14.75 7.375 -14.75 7.375 -17.625 7.125 C-16.635 6.795 -15.645 6.465 -14.625 6.125 C-14.625 5.465 -14.625 4.805 -14.625 4.125 C-13.57699219 3.94324219 -13.57699219 3.94324219 -12.5078125 3.7578125 C-11.14269531 3.50644531 -11.14269531 3.50644531 -9.75 3.25 C-8.39261719 3.00636719 -8.39261719 3.00636719 -7.0078125 2.7578125 C-3.87069608 1.92467666 -3.32884178 0.15851628 0 0 Z " fill="#FCE7C8" transform="translate(658.625,370.875)"/>
<path d="M0 0 C0.33 0.66 0.66 1.32 1 2 C0.28735352 3.97119141 0.28735352 3.97119141 -0.87109375 6.3515625 C-1.28037109 7.20234375 -1.68964844 8.053125 -2.11132812 8.9296875 C-2.7677832 10.26386719 -2.7677832 10.26386719 -3.4375 11.625 C-3.87126953 12.5221875 -4.30503906 13.419375 -4.75195312 14.34375 C-5.82762755 16.56602245 -6.91054931 18.78445719 -8 21 C-8.33 21 -8.66 21 -9 21 C-9.75634421 15.67407619 -7.11754831 12.08545279 -4.5 7.6875 C-4.07074219 6.94693359 -3.64148438 6.20636719 -3.19921875 5.44335938 C-2.14240987 3.62329964 -1.07247813 1.81087081 0 0 Z " fill="#E8701A" transform="translate(904,271)"/>
<path d="M0 0 C0.33 0.66 0.66 1.32 1 2 C0.67 2.66 0.34 3.32 0 4 C-0.99 4.33 -1.98 4.66 -3 5 C-2.67 5.66 -2.34 6.32 -2 7 C-3.41377782 7.36552803 -4.83120576 7.71695495 -6.25 8.0625 C-7.03890625 8.25972656 -7.8278125 8.45695312 -8.640625 8.66015625 C-11.10394822 9.01497267 -12.65604132 8.76877544 -15 8 C-13.87851562 7.51080078 -13.87851562 7.51080078 -12.734375 7.01171875 C-11.74953125 6.57472656 -10.7646875 6.13773437 -9.75 5.6875 C-8.77546875 5.25824219 -7.8009375 4.82898438 -6.796875 4.38671875 C-4.26111122 3.12946157 -2.19019298 1.77822811 0 0 Z " fill="#D9813D" transform="translate(663,369)"/>
<path d="M0 0 C4.00972202 3.67557852 6.45335415 7.18966896 9 12 C8.34 12 7.68 12 7 12 C7 11.34 7 10.68 7 10 C6.21625 9.731875 5.4325 9.46375 4.625 9.1875 C2 8 2 8 0 5 C-0.125 2.3125 -0.125 2.3125 0 0 Z " fill="#FCE8CB" transform="translate(666,487)"/>
<path d="M0 0 C2.475 0.495 2.475 0.495 5 1 C5.33 2.32 5.66 3.64 6 5 C6.99 5 7.98 5 9 5 C10.75 6.25 10.75 6.25 12 8 C11.578125 10.109375 11.578125 10.109375 11 12 C9.16364422 10.19047409 7.33083792 8.37759362 5.5 6.5625 C4.97535156 6.04623047 4.45070313 5.52996094 3.91015625 4.99804688 C2.58775448 3.68423213 1.29164432 2.34406495 0 1 C0 0.67 0 0.34 0 0 Z " fill="#FCE8CC" transform="translate(698,273)"/>
<path d="M0 0 C-0.165 0.886875 -0.33 1.77375 -0.5 2.6875 C-0.92995757 5.53596892 -1.08441035 8.13004802 -1 11 C-3.40072955 8.11912454 -5.47291037 5.43595166 -7 2 C-2.25 0 -2.25 0 0 0 Z " fill="#FCE6C9" transform="translate(685,415)"/>
<path d="M0 0 C0.33 0 0.66 0 1 0 C0.88601335 1.62580966 0.75844341 3.25067157 0.625 4.875 C0.55539062 5.77992188 0.48578125 6.68484375 0.4140625 7.6171875 C0 10 0 10 -2 12 C-2.99 12 -3.98 12 -5 12 C-3.68938409 7.76570244 -2.05643741 3.92592596 0 0 Z " fill="#FBE8CF" transform="translate(890,305)"/>
<path d="M0 0 C0.66 0 1.32 0 2 0 C1.67 3.3 1.34 6.6 1 10 C-0.65 10.66 -2.3 11.32 -4 12 C-3.45660208 7.43545749 -2.20536179 4.0271824 0 0 Z " fill="#191A1A" transform="translate(937,254)"/>
<path d="M0 0 C3.25129636 0.05194909 6.49995065 0.147037 9.75 0.25 C10.67039062 0.26417969 11.59078125 0.27835938 12.5390625 0.29296875 C19.40898911 0.54187913 19.40898911 0.54187913 22.640625 3.046875 C23.08921875 3.69140625 23.5378125 4.3359375 24 5 C22.824375 4.71125 21.64875 4.4225 20.4375 4.125 C13.7011881 2.61364797 6.84449909 1.84767182 0 1 C0 0.67 0 0.34 0 0 Z " fill="#F7D6B0" transform="translate(644,253)"/>
<path d="M0 0 C3.09998746 0.33214151 4.0545012 1.0545012 6.3125 3.3125 C8 6 8 6 7.75 8.3125 C7.5025 8.869375 7.255 9.42625 7 10 C3.66442368 7.0094833 1.84916079 4.06815373 0 0 Z " fill="#DD7F3A" transform="translate(741,458)"/>
<path d="M0 0 C0.66 0 1.32 0 2 0 C0.66666667 4 -0.66666667 8 -2 12 C-2.66 12 -3.32 12 -4 12 C-4.66 10.02 -5.32 8.04 -6 6 C-5.01 6 -4.02 6 -3 6 C-2.67 5.34 -2.34 4.68 -2 4 C-1.34 4 -0.68 4 0 4 C0 2.68 0 1.36 0 0 Z " fill="#FDE8C8" transform="translate(781,408)"/>
<path d="M0 0 C1.22589844 0.01353516 1.22589844 0.01353516 2.4765625 0.02734375 C3.41628906 0.04474609 3.41628906 0.04474609 4.375 0.0625 C4.375 1.39583333 4.375 2.72916667 4.375 4.0625 C2.72833797 3.9489371 1.08263918 3.82132619 -0.5625 3.6875 C-1.47902344 3.61789063 -2.39554688 3.54828125 -3.33984375 3.4765625 C-4.47099609 3.27160156 -4.47099609 3.27160156 -5.625 3.0625 C-5.955 2.4025 -6.285 1.7425 -6.625 1.0625 C-4.21954362 -0.14022819 -2.67503047 -0.03821472 0 0 Z " fill="#1E1F20" transform="translate(758.625,157.9375)"/>
<path d="M0 0 C0.99 0 1.98 0 3 0 C2.731875 0.804375 2.46375 1.60875 2.1875 2.4375 C1.91700973 7.57681519 4.28346727 10.77010475 7 15 C4.0359422 13.6955696 3.08393595 13.12890164 1.25 10.3125 C-0.13220349 6.64966075 -0.23295137 3.88252283 0 0 Z " fill="#F8E0BF" transform="translate(714,415)"/>
<path d="M0 0 C0.33 0.66 0.66 1.32 1 2 C-1.94610778 8.92335329 -1.94610778 8.92335329 -5 11 C-7.09765625 10.56640625 -7.09765625 10.56640625 -9 10 C-8.27683594 9.29423828 -8.27683594 9.29423828 -7.5390625 8.57421875 C-6.90742187 7.95160156 -6.27578125 7.32898438 -5.625 6.6875 C-4.68527344 5.76517578 -4.68527344 5.76517578 -3.7265625 4.82421875 C-1.81913393 2.91187472 -1.81913393 2.91187472 0 0 Z " fill="#FBE5C5" transform="translate(711,392)"/>
<path d="M0 0 C1.28485596 5.13942384 0.22194431 6.37835584 -2 11 C-2.99 11 -3.98 11 -5 11 C-5 11.66 -5 12.32 -5 13 C-5.66 12.67 -6.32 12.34 -7 12 C-4.69 8.04 -2.38 4.08 0 0 Z " fill="#FDEBCD" transform="translate(719,379)"/>
<path d="M0 0 C6.76761128 0.94457629 12.8600433 1.93002165 19 5 C19 5.33 19 5.66 19 6 C12.51527007 5.26309887 6.30760257 3.64681249 0 2 C0 1.34 0 0.68 0 0 Z " fill="#EA7725" transform="translate(657,257)"/>
<path d="M0 0 C3.25548753 3.02295271 5.68977058 6.20462309 8 10 C8 10.66 8 11.32 8 12 C7.34 12 6.68 12 6 12 C5.938125 11.38125 5.87625 10.7625 5.8125 10.125 C5.171081 7.72238859 5.171081 7.72238859 2.4375 6.75 C1.633125 6.5025 0.82875 6.255 0 6 C0 4.02 0 2.04 0 0 Z " fill="#FBE3C3" transform="translate(732,446)"/>
<path d="M0 0 C0.33 0 0.66 0 1 0 C1 2.64 1 5.28 1 8 C0.34 8 -0.32 8 -1 8 C-1.66 9.65 -2.32 11.3 -3 13 C-3.66 13 -4.32 13 -5 13 C-4.54554036 11.58208592 -4.08625056 10.16571954 -3.625 8.75 C-3.24214844 7.56664062 -3.24214844 7.56664062 -2.8515625 6.359375 C-2.04826333 4.13372042 -1.10288338 2.09068328 0 0 Z " fill="#D97F3B" transform="translate(852,258)"/>
<path d="M0 0 C0.33 0 0.66 0 1 0 C1.36972539 7.5177495 1.36972539 7.5177495 -0.4375 9.875 C-0.953125 10.24625 -1.46875 10.6175 -2 11 C-2.33 11.66 -2.66 12.32 -3 13 C-3.66 13 -4.32 13 -5 13 C-3.58192622 8.52761347 -1.88695626 4.28853694 0 0 Z " fill="#D78342" transform="translate(802,367)"/>
<path d="M0 0 C0.90425521 2.50673279 1.09182674 3.71678699 0.2578125 6.2890625 C-0.30292969 7.44535156 -0.30292969 7.44535156 -0.875 8.625 C-1.24367188 9.40101563 -1.61234375 10.17703125 -1.9921875 10.9765625 C-2.66042734 12.31822233 -3.3296873 13.6593746 -4 15 C-4.66 15 -5.32 15 -6 15 C-4.36041242 9.76727367 -2.61047965 4.84803364 0 0 Z " fill="#D78241" transform="translate(809,352)"/>
<path d="M0 0 C0.66 0 1.32 0 2 0 C-0.89066059 9.59453303 -0.89066059 9.59453303 -4 13 C-4.5497272 7.36529617 -2.95047835 4.61012242 0 0 Z " fill="#FDEDD1" transform="translate(849,260)"/>
<path d="M0 0 C6.95171674 6.76877682 6.95171674 6.76877682 7.125 11.1875 C7.08375 12.115625 7.0425 13.04375 7 14 C6.67 14 6.34 14 6 14 C6 12.35 6 10.7 6 9 C5.38125 8.814375 4.7625 8.62875 4.125 8.4375 C0.94397134 6.28562767 0.80548053 3.62466237 0 0 Z " fill="#D8772F" transform="translate(729,490)"/>
<path d="M0 0 C3.9252025 3.70090521 6.94580156 7.54959656 10 12 C9.67 12.66 9.34 13.32 9 14 C4 8.25 4 8.25 4 6 C3.34 6 2.68 6 2 6 C2 5.34 2 4.68 2 4 C1.34 4 0.68 4 0 4 C0 2.68 0 1.36 0 0 Z " fill="#D48546" transform="translate(694,441)"/>
<path d="M0 0 C2.53910197 0.38520564 3.72751123 0.70097943 5.484375 2.62890625 C5.90203125 3.26699219 6.3196875 3.90507812 6.75 4.5625 C7.17796875 5.20316406 7.6059375 5.84382813 8.046875 6.50390625 C8.36140625 6.99761719 8.6759375 7.49132812 9 8 C8.67 8.66 8.34 9.32 8 10 C6.84481082 9.09515208 5.70114594 8.1755794 4.5625 7.25 C3.60537109 6.48429687 3.60537109 6.48429687 2.62890625 5.703125 C0.81189446 3.80332371 0.39576803 2.56413092 0 0 Z " fill="#D9772E" transform="translate(685,431)"/>
<path d="M0 0 C6.40140935 0.46555704 11.26769829 2.14711836 17 5 C13.01754349 6.3274855 10.55210457 4.99907829 6.8125 3.5625 C5.83120117 3.19801758 5.83120117 3.19801758 4.83007812 2.82617188 C3.21696714 2.2256707 1.6080565 1.61390797 0 1 C0 0.67 0 0.34 0 0 Z " fill="#FEECD0" transform="translate(643,302)"/>
<path d="M0 0 C-0.33 1.32 -0.66 2.64 -1 4 C-3.3431213 3.74438677 -5.67843403 3.40729228 -8 3 C-8.33 2.34 -8.66 1.68 -9 1 C-6.04335481 -0.4783226 -3.25770263 -0.06032783 0 0 Z " fill="#1C1D1C" transform="translate(799,170)"/>
<path d="M0 0 C3.375 -0.125 3.375 -0.125 7 0 C7.66 0.66 8.32 1.32 9 2 C7 4 7 4 4.375 4.125 C3.59125 4.08375 2.8075 4.0425 2 4 C1.34 2.68 0.68 1.36 0 0 Z " fill="#070807" transform="translate(673,612)"/>
<path d="M0 0 C-0.99 1.485 -0.99 1.485 -2 3 C-4.3828125 3.29296875 -4.3828125 3.29296875 -7.125 3.1875 C-8.03507813 3.16042969 -8.94515625 3.13335938 -9.8828125 3.10546875 C-10.58148437 3.07066406 -11.28015625 3.03585937 -12 3 C-12 2.34 -12 1.68 -12 1 C-7.95858806 0.36605303 -4.0934693 -0.12404452 0 0 Z " fill="#080A09" transform="translate(743,611)"/>
<path d="M0 0 C5.75 0.75 5.75 0.75 8 3 C7.34 3.66 6.68 4.32 6 5 C3.375 4.625 3.375 4.625 1 4 C0.67 2.68 0.34 1.36 0 0 Z " fill="#111211" transform="translate(623,599)"/>
<path d="M0 0 C1.41377341 2.63904371 2.37240135 5.07120629 3 8 C3.66 8 4.32 8 5 8 C4.67 9.32 4.34 10.64 4 12 C2.99421411 10.71283353 1.99553202 9.42011342 1 8.125 C0.443125 7.40570313 -0.11375 6.68640625 -0.6875 5.9453125 C-2 4 -2 4 -2 2 C-1.34 2 -0.68 2 0 2 C0 1.34 0 0.68 0 0 Z " fill="#D97A31" transform="translate(645,451)"/>
<path d="M0 0 C3.99900242 3.66575222 6.63557638 7.08927402 9 12 C8.67 12.99 8.34 13.98 8 15 C6.65828736 13.06829319 5.32687117 11.12943124 4 9.1875 C3.2575 8.10855469 2.515 7.02960938 1.75 5.91796875 C0 3 0 3 0 0 Z " fill="#D47833" transform="translate(732,443)"/>
<path d="M0 0 C0.66 0.33 1.32 0.66 2 1 C0.02 3.31 -1.96 5.62 -4 8 C-5.32 7.34 -6.64 6.68 -8 6 C-5.36 4.02 -2.72 2.04 0 0 Z " fill="#FCEBD1" transform="translate(697,406)"/>
<path d="M0 0 C0.33 0 0.66 0 1 0 C1.36637589 6.35051546 1.36637589 6.35051546 -0.375 9.4375 C-2 11 -2 11 -4 11 C-3.52269162 9.5410574 -3.04308958 8.08286504 -2.5625 6.625 C-2.29566406 5.81289063 -2.02882813 5.00078125 -1.75390625 4.1640625 C-1 2 -1 2 0 0 Z " fill="#DA803B" transform="translate(796,380)"/>
<path d="M0 0 C2.97 0 5.94 0 9 0 C9.33 0.99 9.66 1.98 10 3 C10.99 3.33 11.98 3.66 13 4 C11 5 11 5 8.3984375 4.22265625 C6.90183594 3.64837891 6.90183594 3.64837891 5.375 3.0625 C4.37210938 2.68222656 3.36921875 2.30195313 2.3359375 1.91015625 C1.56507813 1.60980469 0.79421875 1.30945313 0 1 C0 0.67 0 0.34 0 0 Z " fill="#DA8A4C" transform="translate(647,302)"/>
<path d="M0 0 C0.66 0 1.32 0 2 0 C0.25 5.75 0.25 5.75 -2 8 C-5 4.25 -5 4.25 -5 2 C-3.68 2 -2.36 2 -1 2 C-0.67 1.34 -0.34 0.68 0 0 Z " fill="#CB7B3D" transform="translate(786,514)"/>
<path d="M0 0 C2 2.5 2 2.5 4 5 C5.11375 6.3303125 5.11375 6.3303125 6.25 7.6875 C8 10 8 10 8 12 C7.34 12 6.68 12 6 12 C6 11.34 6 10.68 6 10 C5.34 10 4.68 10 4 10 C2 7 2 7 2 4 C1.34 4 0.68 4 0 4 C0 2.68 0 1.36 0 0 Z " fill="#FDE6C3" transform="translate(756,481)"/>
<path d="M0 0 C1 3 1 3 -0.4375 6.1875 C-1.2109375 7.5796875 -1.2109375 7.5796875 -2 9 C-4 6 -4 6 -3.625 3.3125 C-3.41875 2.549375 -3.2125 1.78625 -3 1 C-2.01 0.67 -1.02 0.34 0 0 Z " fill="#DD7C32" transform="translate(820,446)"/>
<path d="M0 0 C0.33 0 0.66 0 1 0 C1.3669579 6.48292295 1.3669579 6.48292295 -0.375 8.9375 C-2 10 -2 10 -4 10 C-2.8905928 6.51329166 -1.73662334 3.22515763 0 0 Z " fill="#F9E1C2" transform="translate(868,350)"/>
<path d="M0 0 C0.97110486 3.02121511 1.13617383 5.00463263 0 8 C-0.99 8.495 -0.99 8.495 -2 9 C-2.33 9.99 -2.66 10.98 -3 12 C-3.66 12 -4.32 12 -5 12 C-3.85814266 7.52040582 -2.56984833 3.85477249 0 0 Z " fill="#FDE6C4" transform="translate(884,318)"/>
<path d="M0 0 C0.99 0 1.98 0 3 0 C6.42857143 8.42857143 6.42857143 8.42857143 6 13 C4.1727089 10.25906335 3.06301822 7.86174676 1.875 4.8125 C1.52179687 3.91144531 1.16859375 3.01039063 0.8046875 2.08203125 C0.53914062 1.39496094 0.27359375 0.70789063 0 0 Z " fill="#FEEDD4" transform="translate(717,296)"/>
<path d="M0 0 C2.16874252 0.50603992 3.99967627 0.99983813 6 2 C6.72693904 3.97888961 7.39816251 5.97954558 8 8 C7.01 8 6.02 8 5 8 C3.61328125 6.25 3.61328125 6.25 2.3125 4 C1.87550781 3.2575 1.43851563 2.515 0.98828125 1.75 C0.66214844 1.1725 0.33601562 0.595 0 0 Z " fill="#FDECD5" transform="translate(710,286)"/>
<path d="M0 0 C0 0.66 0 1.32 0 2 C-0.99 2 -1.98 2 -3 2 C-3 2.66 -3 3.32 -3 4 C-5.3431213 3.74438677 -7.67843403 3.40729228 -10 3 C-10.33 2.34 -10.66 1.68 -11 1 C-9.54182203 0.83197949 -8.0834516 0.66562857 -6.625 0.5 C-5.81289063 0.4071875 -5.00078125 0.314375 -4.1640625 0.21875 C-2 0 -2 0 0 0 Z " fill="#1F201F" transform="translate(782,163)"/>
<path d="M0 0 C2.31 0 4.62 0 7 0 C6.34 1.32 5.68 2.64 5 4 C2.69 4 0.38 4 -2 4 C-1.34 2.68 -0.68 1.36 0 0 Z " fill="#202020" transform="translate(678,152)"/>
<path d="M0 0 C1.85546875 0.25390625 1.85546875 0.25390625 4 1 C5.30078125 2.77734375 5.30078125 2.77734375 6.3125 4.9375 C6.65925781 5.64777344 7.00601563 6.35804688 7.36328125 7.08984375 C7.57339844 7.72019531 7.78351562 8.35054688 8 9 C7.67 9.66 7.34 10.32 7 11 C5.83051998 9.35616456 4.6644855 7.70987731 3.5 6.0625 C2.8503125 5.14597656 2.200625 4.22945313 1.53125 3.28515625 C0 1 0 1 0 0 Z " fill="#FDE9CC" transform="translate(736,498)"/>
<path d="M0 0 C3.21880117 3.7935871 5.6163187 7.65829477 8 12 C7.34 12 6.68 12 6 12 C6 11.34 6 10.68 6 10 C5.01 9.67 4.02 9.34 3 9 C2.67 7.35 2.34 5.7 2 4 C1.34 4 0.68 4 0 4 C0 2.68 0 1.36 0 0 Z " fill="#FBE3C1" transform="translate(658,475)"/>
<path d="M0 0 C0.33 0 0.66 0 1 0 C0.67 2.97 0.34 5.94 0 9 C-0.66 9 -1.32 9 -2 9 C-2 9.66 -2 10.32 -2 11 C-2.66 11 -3.32 11 -4 11 C-3.52269162 9.5410574 -3.04308958 8.08286504 -2.5625 6.625 C-2.29566406 5.81289063 -2.02882813 5.00078125 -1.75390625 4.1640625 C-1 2 -1 2 0 0 Z " fill="#FBE5C6" transform="translate(839,409)"/>
<path d="M0 0 C0.99 0.33 1.98 0.66 3 1 C3.33 2.98 3.66 4.96 4 7 C4.66 7 5.32 7 6 7 C6 8.65 6 10.3 6 12 C3.25207517 8.59780735 0 4.51535412 0 0 Z " fill="#FEEBCF" transform="translate(769,402)"/>
<path d="M0 0 C0.66 0 1.32 0 2 0 C0.68938409 4.23429756 -0.94356259 8.07407404 -3 12 C-3.88336837 9.5332355 -4.1312406 8.36140628 -3.22265625 5.859375 C-2.83980469 5.16328125 -2.45695313 4.4671875 -2.0625 3.75 C-1.68222656 3.04359375 -1.30195312 2.3371875 -0.91015625 1.609375 C-0.60980469 1.07828125 -0.30945313 0.5471875 0 0 Z " fill="#D38140" transform="translate(828,428)"/>
<path d="M0 0 C0.33 0 0.66 0 1 0 C1 2.64 1 5.28 1 8 C0.34 8 -0.32 8 -1 8 C-1.33 9.32 -1.66 10.64 -2 12 C-2.66 12 -3.32 12 -4 12 C-2.66666667 8 -1.33333333 4 0 0 Z " fill="#D98746" transform="translate(674,351)"/>
<path d="M0 0 C0.33 0 0.66 0 1 0 C1.125 2.875 1.125 2.875 1 6 C0.34 6.66 -0.32 7.32 -1 8 C-1.69748583 9.31747324 -2.36959957 10.64914193 -3 12 C-4.21386936 8.35839192 -3.6674695 7.66834531 -2.0625 4.3125 C-1.49208984 3.10013672 -1.49208984 3.10013672 -0.91015625 1.86328125 C-0.60980469 1.24839844 -0.30945313 0.63351562 0 0 Z " fill="#FCE6C7" transform="translate(821,446)"/>
<path d="M0 0 C0.99 0.33 1.98 0.66 3 1 C3 1.66 3 2.32 3 3 C3.66 3 4.32 3 5 3 C5.33 5.64 5.66 8.28 6 11 C3.13546142 7.58983503 1.65296434 4.09305456 0 0 Z " fill="#FEECD0" transform="translate(748,362)"/>
<path d="M0 0 C1.24546405 2.49092811 0.7767578 3.41080733 0 6 C-0.66 6 -1.32 6 -2 6 C-2.33 7.32 -2.66 8.64 -3 10 C-3.66 10 -4.32 10 -5 10 C-4.38545304 6.00544473 -2.29353263 3.25533664 0 0 Z " fill="#E37524" transform="translate(862,358)"/>
<path d="M0 0 C0.66 0 1.32 0 2 0 C1.54917531 1.46067199 1.08906463 2.91848032 0.625 4.375 C0.36976563 5.18710937 0.11453125 5.99921875 -0.1484375 6.8359375 C-1 9 -1 9 -3 11 C-2.67 8.36 -2.34 5.72 -2 3 C-1.34 3 -0.68 3 0 3 C0 2.01 0 1.02 0 0 Z " fill="#FDE8CA" transform="translate(833,295)"/>
<path d="M0 0 C0.75 1.625 0.75 1.625 1 4 C-0.8125 7.0625 -0.8125 7.0625 -3 10 C-3.66 10.99 -4.32 11.98 -5 13 C-4.48474397 7.71862571 -2.74522883 4.42778844 0 0 Z " fill="#131414" transform="translate(930,270)"/>
<path d="M0 0 C0.99 0 1.98 0 3 0 C3.69710731 1.28650706 4.38242876 2.57940665 5.0625 3.875 C5.63677734 4.95394531 5.63677734 4.95394531 6.22265625 6.0546875 C6.47917969 6.69664062 6.73570312 7.33859375 7 8 C6.67 8.66 6.34 9.32 6 10 C4.99421411 8.71283353 3.99553202 7.42011342 3 6.125 C2.443125 5.40570313 1.88625 4.68640625 1.3125 3.9453125 C0 2 0 2 0 0 Z " fill="#D47D3B" transform="translate(759,484)"/>
<path d="M0 0 C1.32 0 2.64 0 4 0 C5.0625 1.75 5.0625 1.75 6 4 C5.67 5.32 5.34 6.64 5 8 C2.525 4.04 2.525 4.04 0 0 Z " fill="#FCEACE" transform="translate(702,451)"/>
<path d="M0 0 C0.33 1.32 0.66 2.64 1 4 C-1.97 6.475 -1.97 6.475 -5 9 C-4.38722388 6.03824877 -3.74627478 4.61941217 -2 2 C-1.34 2 -0.68 2 0 2 C0 1.34 0 0.68 0 0 Z " fill="#FEF5DE" transform="translate(667,361)"/>
<path d="M0 0 C1.32 0.33 2.64 0.66 4 1 C1.66666667 3.33333333 -0.66666667 5.66666667 -3 8 C-2.45276317 4.62537285 -1.9451 2.91765 0 0 Z " fill="#131413" transform="translate(885,523)"/>
<path d="M0 0 C4.875 4.625 4.875 4.625 6 8 C5.34 8 4.68 8 4 8 C4 7.34 4 6.68 4 6 C2.68 5.67 1.36 5.34 0 5 C0 3.35 0 1.7 0 0 Z " fill="#FBE4C5" transform="translate(776,511)"/>
<path d="M0 0 C0.66 0 1.32 0 2 0 C0.84414715 3.91211733 -0.35534962 6.8745041 -3 10 C-3.3636198 5.75776898 -2.5393228 3.41831915 0 0 Z " fill="#D4813F" transform="translate(815,455)"/>
<path d="M0 0 C0.33 0 0.66 0 1 0 C1 2.31 1 4.62 1 7 C-0.32 7.33 -1.64 7.66 -3 8 C-1.125 2.25 -1.125 2.25 0 0 Z " fill="#FCE7C7" transform="translate(854,379)"/>
<path d="M0 0 C0.33 0.99 0.66 1.98 1 3 C0.34 3 -0.32 3 -1 3 C-1.28875 3.804375 -1.5775 4.60875 -1.875 5.4375 C-3 8 -3 8 -5 9 C-4.34 6.69 -3.68 4.38 -3 2 C-2.01 2 -1.02 2 0 2 C0 1.34 0 0.68 0 0 Z " fill="#E37321" transform="translate(672,361)"/>
<path d="M0 0 C0.33 0.66 0.66 1.32 1 2 C1.66 2 2.32 2 3 2 C2.625 4.9375 2.625 4.9375 2 8 C1.01 8.495 1.01 8.495 0 9 C-1.125 3.375 -1.125 3.375 0 0 Z " fill="#1F1F1D" transform="translate(487,299)"/>
<path d="M0 0 C1.98 0.66 3.96 1.32 6 2 C6 2.66 6 3.32 6 4 C4.02 4.33 2.04 4.66 0 5 C0 3.35 0 1.7 0 0 Z " fill="#131313" transform="translate(580,577)"/>
<path d="M0 0 C2.15377564 2.62198774 3.40072174 4.64404172 4 8 C3.01 8 2.02 8 1 8 C-0.35439668 5.29120665 -0.06501451 2.99066732 0 0 Z " fill="#DC843E" transform="translate(752,371)"/>
<path d="M0 0 C0.66 0 1.32 0 2 0 C2.625 3.375 2.625 3.375 3 7 C2.34 7.66 1.68 8.32 1 9 C0.67 6.03 0.34 3.06 0 0 Z " fill="#0B0C0C" transform="translate(931,352)"/>
<path d="M0 0 C0.33 0 0.66 0 1 0 C1.25 5.625 1.25 5.625 -1 9 C-1.66 9 -2.32 9 -3 9 C-2.01 6.03 -1.02 3.06 0 0 Z " fill="#D68240" transform="translate(813,343)"/>
<path d="M0 0 C1.485 0.99 1.485 0.99 3 2 C3.1875 5.125 3.1875 5.125 3 8 C2.01 8.495 2.01 8.495 1 9 C0.67 6.03 0.34 3.06 0 0 Z " fill="#0A0B0A" transform="translate(928,333)"/>
<path d="M0 0 C7.75 0.75 7.75 0.75 10 3 C7.36 3 4.72 3 2 3 C2 2.34 2 1.68 2 1 C1.34 0.67 0.68 0.34 0 0 Z " fill="#E47323" transform="translate(645,299)"/>
<path d="M0 0 C0.66 0 1.32 0 2 0 C1.01 2.97 0.02 5.94 -1 9 C-1.33 9 -1.66 9 -2 9 C-2.25 3.375 -2.25 3.375 0 0 Z " fill="#FDEBCE" transform="translate(837,286)"/>
<path d="M0 0 C3.36720387 1.39332574 4.9859524 2.9789286 7 6 C5.68 6 4.36 6 3 6 C0 2.78571429 0 2.78571429 0 0 Z " fill="#D67E3B" transform="translate(695,272)"/>
<path d="M0 0 C3.81538462 2.46153846 3.81538462 2.46153846 4.75 5.1875 C4.8325 5.785625 4.915 6.38375 5 7 C4.01 7.495 4.01 7.495 3 8 C0 3.375 0 3.375 0 0 Z " fill="#FDEFD6" transform="translate(696,440)"/>
<path d="M0 0 C1.37562854 1.28965176 2.70766393 2.62689293 4 4 C4 4.66 4 5.32 4 6 C2.35 6 0.7 6 -1 6 C-0.67 4.02 -0.34 2.04 0 0 Z " fill="#C6834D" transform="translate(746,361)"/>
<path d="M0 0 C0.99 0.33 1.98 0.66 3 1 C3 2.32 3 3.64 3 5 C2.34 5 1.68 5 1 5 C0.67 6.32 0.34 7.64 0 9 C0 6.03 0 3.06 0 0 Z " fill="#E17F36" transform="translate(723,318)"/>
<path d="M0 0 C0.66 0 1.32 0 2 0 C2 0.99 2 1.98 2 3 C3.32 3.33 4.64 3.66 6 4 C6 4.66 6 5.32 6 6 C2.34683329 4.75023244 1.21934164 4.32901247 -1 1 C-0.67 0.67 -0.34 0.34 0 0 Z " fill="#222222" transform="translate(829,190)"/>
</svg>
